<svg width="67" height="23" viewBox="0 0 67 23" fill="none" xmlns="http://www.w3.org/2000/svg">
<path d="M56.4262 11.005L59.7401 11.005L66.3681 11.005L66.3681 13.2143L63.0541 13.2143L63.0541 14.319L59.7401 14.319L59.7401 15.4236L56.4262 15.4236L56.4262 16.5283L53.1122 16.5283L53.1122 17.6329L49.7983 17.6329L49.7983 18.7376L46.4843 18.7376L46.4843 19.8422L43.1704 19.8422L43.1704 20.9469L39.8564 20.9469L39.8564 22.0515L33.2285 22.0515L33.2285 18.7376L36.5425 18.7376L36.5425 17.6329L39.8564 17.6329L39.8564 16.5283L43.1704 16.5283L43.1704 15.4236L46.4843 15.4236L46.4843 14.319L49.7983 14.319L49.7983 13.2143L53.1122 13.2143L53.1122 12.1097L56.4262 12.1097L56.4262 11.005Z" fill="black"/>
<path d="M56.4262 11.0465L59.7401 11.0465L66.3681 11.0465L66.3681 8.83721L63.0541 8.83721L63.0541 7.73256L59.7401 7.73256L59.7401 6.62791L56.4262 6.62791L56.4262 5.52326L53.1122 5.52326L53.1122 4.4186L49.7983 4.4186L49.7983 3.31395L46.4843 3.31395L46.4843 2.2093L43.1704 2.2093L43.1704 1.10465L39.8564 1.10465L39.8564 -2.89715e-07L33.2285 0L33.2285 3.31395L36.5425 3.31395L36.5425 4.41861L39.8564 4.41861L39.8564 5.52326L43.1704 5.52326L43.1704 6.62791L46.4843 6.62791L46.4843 7.73256L49.7983 7.73256L49.7983 8.83721L53.1122 8.83721L53.1122 9.94186L56.4262 9.94186L56.4262 11.0465Z" fill="black"/>
<rect y="13" width="4" height="59" transform="rotate(-90 0 13)" fill="black"/>
</svg>
