<svg width="720" height="638" viewBox="0 0 720 638" fill="none" xmlns="http://www.w3.org/2000/svg">
<path opacity="0.2" fill-rule="evenodd" clip-rule="evenodd" d="M720 319.447C720 36.8038 719.941 0.893874 719.473 0.893874C719.183 0.893874 718.945 1.18303 718.945 1.53715C718.945 2.43173 715.928 4.12967 714.023 4.30518C713.153 4.3856 712.096 4.86883 711.674 5.37836C711.251 5.88866 710.215 6.30619 709.371 6.30619C707.73 6.30619 706.992 7.31287 706.992 9.55357C706.992 10.319 706.738 10.9453 706.427 10.9453C706.082 10.9453 705.937 11.3752 706.055 12.0486C706.274 13.3027 705.438 15.105 704.579 15.2342C702.964 15.4754 702.803 15.6285 702.998 16.7442C703.124 17.4679 702.995 17.904 702.655 17.904C702.355 17.904 701.903 18.5272 701.651 19.2888C700.986 21.2929 698.906 24.35 698.906 23.3233C698.906 22.8439 698.731 22.6908 698.515 22.9831C698.301 23.2753 697.995 23.0534 697.837 22.4906C697.615 21.7027 697.386 21.9036 696.846 23.3572C696.283 24.8758 696.055 25.0583 695.697 24.2828C695.038 22.8585 694.688 23.1014 694.688 24.9826C694.688 26.5707 694.656 26.5861 694.019 25.3189C693.582 24.4483 693.271 24.2735 693.12 24.8124C692.78 26.0225 691.875 25.816 691.875 24.5279C691.875 23.3882 690.633 22.0962 689.854 22.4256C689.612 22.5276 689.414 22.2478 689.414 21.804C689.414 21.3602 689.177 20.9968 688.887 20.9968C688.597 20.9968 688.359 20.4957 688.359 19.8826C688.359 18.2512 687.702 17.6303 687.113 18.705C686.701 19.4581 686.602 19.3962 686.602 18.3849C686.602 16.7968 686.506 16.8115 685.158 18.6146C684.548 19.4303 683.832 19.9151 683.567 19.6916C683.303 19.4674 683.086 19.6375 683.086 20.0682C683.086 20.4996 682.78 20.6766 682.407 20.4617C681.982 20.2166 681.789 19.595 681.891 18.7939C681.98 18.0919 681.866 18.3006 681.637 19.2571C681.162 21.2426 680.535 21.6408 680.865 19.7473C681.056 18.6509 680.979 18.6199 680.239 19.4913C679.775 20.0379 679.355 20.4261 679.307 20.3542C678.891 19.7372 678.17 20.5135 677.988 21.7722C677.786 23.174 677.712 23.2065 677.217 22.1179C676.442 20.413 675.201 20.9921 675.063 23.123C674.949 24.8928 674.494 25.4171 674.146 24.1792C673.896 23.2885 672.189 23.5228 671.37 24.5619C670.858 25.2114 670.535 24.9732 669.767 23.3796C669.238 22.2817 668.708 20.8174 668.59 20.1261C668.444 19.2694 668.096 18.9857 667.498 19.237C666.786 19.537 666.599 19.2663 666.504 17.7965C666.374 15.7909 665.226 14.8592 664.791 16.4071C664.58 17.1563 664.373 17.0658 663.897 16.0174C663.456 15.0486 662.943 14.7718 662.128 15.0625C661.418 15.3161 660.913 15.1244 660.806 14.5623C660.71 14.0543 660.53 14.3976 660.399 15.3378C660.263 16.3167 659.969 16.8578 659.696 16.6282C659.419 16.3939 658.996 17.2182 658.661 18.6401C658.35 19.9638 657.944 20.8413 657.758 20.59C657.573 20.338 657.422 20.4632 657.422 20.8676C657.422 21.2712 657.066 21.7993 656.631 22.0405C656.196 22.2817 655.682 23.2761 655.488 24.2503C655.295 25.2253 654.899 26.0549 654.609 26.0951C654.319 26.1353 653.607 26.5807 653.027 27.0848C651.187 28.6838 651.094 28.7038 651.094 27.4992C651.094 26.849 650.947 26.518 650.767 26.7623C650.587 27.0075 650.333 26.8304 650.204 26.3688C650.074 25.908 649.707 25.758 649.388 26.0364C649.07 26.314 648.334 26.6805 647.754 26.8498C646.78 27.1343 645.08 30.5015 643.809 34.6667C643.45 35.8411 643.411 35.8574 643.575 34.7641C643.724 33.7698 643.573 33.4767 642.95 33.5479C642.498 33.5989 641.901 34.0149 641.622 34.4711C641.248 35.0834 641.18 35.0618 641.364 34.3876C641.501 33.8858 641.45 33.2525 641.25 32.9811C641.05 32.7097 640.978 32.1639 641.089 31.768C641.345 30.858 641.165 30.8641 640.042 31.802C639.546 32.2172 639.138 33.1736 639.135 33.9282C639.132 34.9303 639.053 35.0332 638.844 34.311C638.624 33.5479 638.339 33.7025 637.595 34.9891C636.82 36.3298 636.338 36.5671 635.129 36.203C634.195 35.9215 633.473 36.0894 633.22 36.6468C632.911 37.3265 632.81 37.178 632.801 36.0352C632.791 34.652 632.753 34.6342 632.343 35.821C631.949 36.9607 631.856 36.9754 631.561 35.9455C631.275 34.9497 631.076 35.0803 630.219 36.8254C629.631 38.0254 628.99 38.6865 628.674 38.4197C628.214 38.0316 628.233 37.8058 628.803 36.8888C629.564 35.6641 629.338 34.6319 628.468 35.3649C628.15 35.6332 627.891 36.469 627.891 37.2229C627.891 38.0154 627.447 38.9973 626.836 39.5532C626.256 40.0813 625.781 40.9759 625.781 41.5403C625.781 42.7217 624.273 46.5119 623.803 46.5119C623.63 46.5119 623.095 47.5936 622.613 48.9165C621.31 52.4971 619.684 55.7824 619.213 55.7863C618.985 55.7886 618.69 56.5317 618.56 57.4386C618.389 58.6193 618.244 58.8102 618.048 58.1128C617.632 56.6322 616.993 57.9381 616.987 60.2816C616.983 61.9092 616.907 62.1094 616.641 61.2025C616.453 60.5646 616.298 60.4246 616.294 60.8909C616.288 61.8875 615.091 65.0684 614.722 65.0684C614.583 65.0684 614.174 65.8516 613.815 66.8081L613.162 68.5477L613.364 66.7748C613.475 65.7998 613.428 65.0583 613.258 65.1272C612.321 65.5053 611.757 64.9756 611.946 63.8939C612.116 62.9182 611.995 62.8501 611.228 63.4911C610.335 64.238 610.322 64.207 610.811 62.5393C611.272 60.9651 611.244 60.6984 610.484 59.462C609.974 58.6324 609.567 58.4074 609.434 58.8822C609.314 59.3074 609.058 59.6561 608.865 59.6561C608.671 59.6561 608.632 59.2208 608.777 58.6896C608.979 57.952 608.909 57.9582 608.483 58.7167C608.177 59.2633 607.724 59.6112 607.478 59.4898C607.232 59.3684 606.847 60.0427 606.623 60.9875C606.33 62.2176 606.107 62.4682 605.835 61.8705C605.626 61.4112 604.731 61.1622 603.846 61.3169C602.741 61.5102 602.18 61.279 602.058 60.5785C601.96 60.0172 601.739 59.7504 601.566 59.9847C601.393 60.2197 601.17 59.7218 601.07 58.8783C600.856 57.0822 599.699 55.8474 599.494 57.1974C599.418 57.6992 598.973 58.1097 598.506 58.1097C598.038 58.1097 597.656 58.4577 597.656 58.8829C597.656 59.3082 597.34 59.6561 596.953 59.6561C596.566 59.6561 596.25 60.004 596.25 60.4293C596.25 60.8545 595.864 61.2025 595.392 61.2025C594.92 61.2025 594.431 61.5689 594.305 62.0166C594.179 62.4643 593.9 62.7016 593.685 62.5439C593.47 62.3862 592.93 63.1501 592.485 64.2426C591.822 65.8694 591.721 65.9491 591.92 64.6818C592.12 63.4076 592.074 63.2939 591.658 64.0361C591.159 64.9245 590.966 65.0684 590.273 65.0684C590.08 65.0684 589.922 65.5903 589.922 66.2282C589.922 66.8661 589.724 67.3895 589.482 67.3918C588.815 67.3972 586.759 71.9266 586.747 73.4196C586.734 74.9281 585.703 78.2358 585.703 76.7683C585.703 75.2953 584.999 76.5741 584.627 78.7205C584.446 79.7682 584.14 80.4107 583.947 80.1478C583.726 79.8479 583.798 78.8149 584.14 77.3567C584.742 74.7982 584.532 72.0271 583.737 72.0271C583.455 72.0271 583.086 71.2237 582.916 70.2418C582.727 69.1485 581.981 67.8882 580.991 66.9905C580.102 66.1841 579.375 65.2478 579.375 64.9099C579.375 63.3194 577.87 64.5743 576.865 67.0037C575.63 69.9897 575.094 70.0516 575.971 67.1073C576.509 65.3027 576.501 65.2478 575.755 65.6622C575.329 65.8988 574.864 66.4709 574.722 66.9333C574.537 67.5372 574.462 67.5348 574.458 66.9255C574.456 66.4585 573.968 66.0465 573.374 66.0094C572.781 65.9722 572.062 65.5161 571.776 64.9957C571.353 64.2225 571.148 64.3857 570.658 65.8857C570.329 66.8962 569.951 68.2562 569.82 68.908C569.624 69.8807 569.576 69.8412 569.556 68.6892C569.538 67.6438 569.351 67.4096 568.828 67.7746C568.329 68.1225 568.125 67.9137 568.125 67.0532C568.125 65.2138 567.25 65.6042 566.509 67.7746C565.709 70.1166 565.134 70.3384 565.68 68.0946C566.144 66.1879 566.207 66.3612 564.434 64.6331C562.761 63.0032 561.428 62.7202 561.214 63.9504C561.128 64.439 560.687 64.6826 560.232 64.4916C559.616 64.2326 559.344 64.5682 559.165 65.8068C558.97 67.163 558.83 67.2967 558.412 66.532C557.996 65.7727 557.794 65.9243 557.346 67.33C556.919 68.6699 556.703 68.8516 556.395 68.1294C556.097 67.4305 556.107 67.1057 556.436 66.8405C557.39 66.0712 556.793 65.291 555.293 65.3452C554.423 65.3769 553.711 65.6382 553.711 65.9259C553.711 66.2143 553.47 66.6526 553.176 66.9016C552.733 67.275 552.707 67.0764 553.028 65.7581C553.242 64.8805 553.328 63.9689 553.221 63.7316C553.113 63.495 552.925 63.8722 552.803 64.5712C552.526 66.1562 551.825 66.2065 551.25 64.6818C550.948 63.8808 550.934 63.522 551.207 63.522C551.424 63.522 551.602 63.1532 551.602 62.7032C551.602 62.2532 551.443 62.0994 551.25 62.3623C551.057 62.6251 550.898 62.4342 550.898 61.9386C550.898 61.4429 550.661 61.2373 550.371 61.4824C550.042 61.7599 549.844 61.4761 549.844 60.7269C549.844 58.9269 548.982 59.9058 548.852 61.8542C548.719 63.8467 548.086 63.314 548.086 61.2094C548.086 57.6234 543.686 55.0409 542.805 58.1097C542.544 59.0189 542.47 59.0406 542.466 58.2086C542.462 57.3489 542.36 57.3319 541.929 58.1174C541.478 58.9409 541.412 58.8087 541.49 57.2453C541.637 54.3103 540.247 54.7432 539.957 57.7231C539.833 58.9989 539.713 59.4543 539.69 58.7352C539.667 58.0162 539.505 57.2329 539.33 56.9948C539.155 56.7558 539.094 57.2576 539.195 58.1089C539.32 59.1597 539.206 59.6561 538.84 59.6561C538.544 59.6561 538.221 60.0914 538.123 60.6226C538.026 61.1538 537.929 60.5452 537.907 59.2695C537.874 57.2994 537.804 57.1309 537.44 58.1492C537.092 59.1226 536.86 59.1783 536.203 58.4453C535.544 57.7092 535.157 57.809 534.108 58.9857C532.325 60.9844 531.851 60.8677 532.121 58.4963C532.355 56.4528 531.693 55.6881 531.358 57.6126C531.256 58.1917 530.789 58.5682 530.314 58.4538C529.802 58.33 529.319 58.7661 529.121 59.5308C528.848 60.5885 528.667 60.6512 528.098 59.8857C527.525 59.1156 527.367 59.1782 527.18 60.2506C526.985 61.371 526.906 61.3919 526.595 60.4076C526.323 59.5463 526.192 59.5046 526.057 60.236C525.959 60.7679 525.724 61.2024 525.536 61.2024C525.347 61.2024 525.291 60.8522 525.412 60.4238C525.532 59.9955 525.393 59.445 525.103 59.1999C524.783 58.93 524.662 58.2473 524.795 57.4656C524.988 56.3314 524.942 56.3074 524.405 57.2669C524.07 57.8669 523.882 58.8466 523.986 59.4442C524.124 60.2368 523.986 60.3984 523.475 60.0411C523.089 59.7721 522.773 59.8532 522.773 60.222C522.773 60.5901 522.248 61.3099 521.606 61.8202C520.248 62.9004 519.947 62.9653 519.999 62.169C520.092 60.7525 519.504 58.337 518.847 57.4347C518.451 56.8904 518.234 56.8216 518.363 57.2793C518.491 57.7363 518.475 58.5396 518.328 59.0654C518.18 59.5904 518.081 61.2434 518.107 62.738C518.154 65.4349 518.153 65.438 517.896 63.1354C517.737 61.7166 517.445 60.9117 517.142 61.0641C516.87 61.2001 516.444 60.6983 516.195 59.9491C515.85 58.9123 515.739 58.8535 515.731 59.7017C515.723 60.553 515.609 60.4934 515.248 59.4496C514.604 57.5816 513.891 58.3819 512.963 62.0112C512.122 65.3011 511.896 65.5787 511.239 64.1336C510.906 63.4022 510.702 63.5499 510.3 64.8102C509.767 66.4841 508.359 67.7545 508.359 66.5614C508.359 66.1872 507.867 66.0967 507.265 66.3619C506.241 66.8119 506.195 66.7384 506.562 65.2338C507.094 63.0434 507.054 62.3761 506.454 63.4717C506.043 64.2202 505.988 64.098 506.143 62.7929C506.257 61.8357 506.163 61.2024 505.907 61.2024C505.612 61.2024 505.519 62.486 505.602 65.3939C505.704 68.939 505.632 69.5699 505.132 69.4856C504.807 69.4315 504.549 69.198 504.558 68.9668C504.691 65.7604 503.612 66.6062 503.026 70.1675C502.788 71.6157 502.502 72.8002 502.39 72.8002C501.935 72.8002 501.117 69.9418 501.274 68.8973C501.419 67.9323 501.359 67.9261 500.849 68.8516C500.523 69.443 500.146 69.6851 500.012 69.3889C499.877 69.0928 499.98 68.5601 500.241 68.2052C500.502 67.8511 500.599 67.1483 500.458 66.6442C500.277 66.0024 500.047 66.2096 499.687 67.3377C499.236 68.7534 499.239 69.0897 499.709 70.1235C500.413 71.6722 500.07 73.8016 499.268 72.8583C498.947 72.4802 498.251 72.3525 497.721 72.5752C497.108 72.8335 496.758 72.6463 496.758 72.0618C496.758 71.5569 496.521 70.6214 496.231 69.9835C495.762 68.9529 495.703 68.9591 495.703 70.0392C495.703 71.5044 495.38 71.5462 494.566 70.1861C494.231 69.6263 494.068 68.9228 494.204 68.6235C494.34 68.3243 494.185 68.3042 493.86 68.5786C493.535 68.8524 493.186 69.6549 493.084 70.3608C492.982 71.0667 492.548 72.1253 492.12 72.7137C491.345 73.7784 491.344 73.7729 491.94 71.7727C492.674 69.3085 492.684 68.9343 492.012 68.9343C491.722 68.9343 491.471 69.3689 491.456 69.9008C491.44 70.432 491.207 69.7632 490.938 68.414C490.315 65.2856 489.86 64.681 489.423 66.3991C489.232 67.1483 488.963 67.5117 488.824 67.207C488.685 66.9016 488.755 66.1656 488.98 65.5718C489.204 64.9772 489.289 63.9248 489.168 63.2336C488.93 61.872 487.969 61.4831 487.969 62.7488C487.969 63.1741 487.767 63.522 487.52 63.522C487.273 63.522 486.681 64.122 486.205 64.8557C485.729 65.5887 484.982 66.0859 484.545 65.9599C484.072 65.8238 483.745 66.1446 483.739 66.7523C483.731 67.4258 483.563 67.2975 483.245 66.3751C482.955 65.5331 482.675 65.2903 482.541 65.7658C482.394 66.2892 482.017 66.3032 481.423 65.8068C480.93 65.3947 480.342 65.3112 480.117 65.6212C479.396 66.6124 478.79 66.5236 478.594 65.3978C478.288 63.6458 477.773 64.9509 477.773 67.4792C477.773 68.9529 477.634 69.6093 477.391 69.2791C477.181 68.9938 477.09 68.0831 477.188 67.2565C477.456 64.9988 476.633 65.9521 476.023 68.6049C475.515 70.8132 475.5 70.824 475.379 69.0542C475.289 67.7428 475.079 67.3423 474.62 67.6059C474.27 67.807 473.769 67.6755 473.506 67.3137C473.184 66.8714 472.828 67.2194 472.42 68.3745C472.077 69.3457 471.809 69.6534 471.805 69.082C471.8 68.5253 471.673 68.2385 471.522 68.4441C471.37 68.649 470.871 67.6099 470.41 66.1331C469.877 64.422 469.484 63.7694 469.325 64.3338C468.996 65.506 467.626 62.2988 467.335 59.6715C467.074 57.328 466.467 56.2958 466.099 57.5707C465.669 59.0576 465.779 59.8563 466.348 59.3762C466.638 59.1319 466.875 59.2687 466.875 59.68C466.875 60.0921 466.54 60.4293 466.131 60.4293C465.56 60.4293 465.429 60.7888 465.571 61.9756C465.856 64.3771 465.476 63.7957 465.064 61.2024C464.862 59.9267 464.554 58.8829 464.38 58.8829C463.903 58.8829 463.998 60.2499 464.502 60.6458C464.744 60.8352 464.83 61.255 464.693 61.579C464.556 61.9022 464.161 61.8945 463.814 61.562C463.467 61.2295 463.065 61.0122 462.92 61.0795C462.775 61.1475 462.656 60.7176 462.656 60.1254C462.656 58.7924 461.61 57.7966 461.579 59.1002C461.567 59.619 461.411 59.2447 461.234 58.269C460.947 56.7009 460.818 56.6051 460.113 57.4401C459.675 57.9597 459 58.4437 458.613 58.5164C458.227 58.5891 457.664 58.8868 457.362 59.1783C457.031 59.4984 456.477 59.063 455.96 58.078L455.105 56.4481L454.135 58.8373C453.601 60.1517 453.164 60.8483 453.164 60.386C453.164 59.9128 452.939 60.0396 452.65 60.6759C452.257 61.5411 452.214 62.4016 452.468 64.3524C452.651 65.7526 452.732 67.0501 452.648 67.2349C452.564 67.4197 452.389 66.6387 452.259 65.4998C452.095 64.0671 451.858 63.5684 451.489 63.88C451.044 64.2558 451.03 64.1321 451.407 63.1347C451.655 62.4767 451.746 61.6911 451.608 61.3888C451.471 61.0865 451.056 61.7035 450.687 62.7604C450.318 63.8174 449.992 64.4212 449.964 64.1019C449.935 63.7826 449.873 63.1741 449.824 62.7488C449.776 62.3236 449.717 61.5612 449.692 61.0548C449.668 60.5483 449.428 60.7958 449.159 61.6053C448.744 62.8555 448.585 62.922 448.104 62.0452C447.731 61.3633 447.539 61.3076 447.539 61.8813C447.539 62.3583 447.223 62.0529 446.836 61.2024C446.026 59.421 445.414 59.2509 444.753 60.6226C444.38 61.3958 444.255 61.3958 444.126 60.6226C443.876 59.1226 443.428 59.479 443.154 61.3957C442.916 63.0681 442.897 63.0759 442.674 61.589C442.426 59.9383 440.895 59.4118 440.425 60.8159C440.27 61.2821 440.165 61.1699 440.162 60.5321C440.158 59.8578 439.902 59.622 439.453 59.8803C439.066 60.1022 438.75 60.0396 438.75 59.7411C438.75 58.705 437.164 59.2757 436.299 60.6226C435.821 61.3664 435.318 61.9756 435.182 61.9756C435.046 61.9756 434.862 61.3664 434.774 60.6226C434.685 59.8788 434.584 60.4872 434.548 61.9756C434.489 64.4637 434.454 64.5457 434.112 62.9869C433.636 60.8251 432.919 60.2189 432.341 61.4908C431.731 62.8323 431 62.1999 431.279 60.5723C431.483 59.3909 431.446 59.3955 430.884 60.621C430.418 61.637 430.101 61.7808 429.609 61.2017C429.076 60.5746 428.907 60.7563 428.703 62.1697C428.566 63.1261 428.209 64.7297 427.911 65.7333C427.381 67.517 427.363 67.5225 427.104 65.9869C426.917 64.8735 426.629 64.5372 426.115 64.8318C425.604 65.1256 425.391 64.8805 425.391 63.9991C425.391 63.3109 425.268 62.7488 425.118 62.7488C424.725 62.7488 423.181 65.1727 422.677 66.5791C422.307 67.6113 422.247 67.5286 422.238 65.9707C422.224 63.7802 421.493 64.0764 421.001 66.4717C420.606 68.3916 419.766 68.7526 419.766 67.0013C419.766 65.3111 419.48 65.5369 417.809 68.5477C416.212 71.4255 415.712 71.891 416.002 70.2286C416.281 68.6335 414.919 69.1925 414.326 70.9175C413.83 72.3618 413.81 72.3464 413.773 70.4807L413.734 68.5477L413.388 70.626C413.043 72.6997 413.041 72.7005 412.343 71.1657C411.526 69.3704 410.479 69.7965 409.502 72.3201C408.909 73.8518 408.843 73.8711 408.498 72.6069C408.05 70.9647 406.646 70.8379 405.946 72.3765C405.364 73.6577 405 73.1837 405 71.1441C405 69.9595 404.861 69.8621 404.092 70.5054C403.061 71.3667 402.539 70.9314 402.539 69.2111C402.539 67.4629 401.678 68.4047 401.551 70.292C401.491 71.1843 401.214 72.3309 400.936 72.8389C400.658 73.3469 400.43 74.2052 400.43 74.7448C400.43 75.2853 400.192 75.9278 399.902 76.1729C399.612 76.4172 399.364 77.4115 399.35 78.3819C399.328 79.9445 399.296 79.9801 399.067 78.6973C398.824 77.3373 398.772 77.3288 398.213 78.5597C397.885 79.2803 397.612 80.2793 397.606 80.7803C397.6 81.2821 397.363 81.0161 397.079 80.1911C396.597 78.7894 396.365 79.3314 396.521 81.4986C396.623 82.9174 395.805 81.8906 395.444 80.1455C395.059 78.2883 393.75 77.3914 393.75 78.9857C393.75 79.411 393.592 79.7589 393.398 79.7589C393.205 79.7589 393.047 79.237 393.047 78.5991C393.047 77.3064 391.805 77.0033 391.465 78.2125C391.159 79.3027 389.883 79.1775 389.883 78.0579C389.883 77.3365 389.789 77.3365 389.461 78.0579C388.795 79.5223 388.242 79.1443 388.273 77.2461C388.293 76.0067 388.073 75.4353 387.51 75.259C387.075 75.1237 386.719 75.3842 386.719 75.8389C386.719 76.2943 386.388 76.6662 385.983 76.6662C385.542 76.6662 385.173 77.287 385.063 78.2125C384.889 79.6708 384.257 80.4301 384.258 79.1791C384.258 78.8597 383.454 78.7213 382.471 78.8713C380.774 79.1295 380.695 79.2386 380.899 81.03C381.036 82.2285 380.919 83.3473 380.577 84.0988C380.094 85.1604 380.039 85.1016 380.039 83.5251C380.039 81.3671 379.554 82.2718 378.699 86.0256C378.336 87.6215 377.861 88.6088 377.488 88.5431C377.151 88.4844 376.875 88.908 376.875 89.4856C376.875 90.0709 377.094 90.3501 377.371 90.1166C377.669 89.8653 377.959 90.3376 378.097 91.301C378.332 92.9224 378.594 93.1706 379.863 92.9703C380.536 92.8644 380.538 92.8977 379.913 93.7405C379.451 94.3621 379.038 94.3853 378.507 93.8201C377.181 92.4098 375.685 92.2444 374.673 93.3957C374.131 94.0111 373.775 94.8253 373.881 95.2041C373.988 95.583 373.566 95.8613 372.945 95.8227C372.323 95.784 371.753 96.1543 371.679 96.6469C371.604 97.1394 371.269 97.5422 370.935 97.5422C370.601 97.5422 369.667 98.2443 368.86 99.1017C368.053 99.9592 366.955 100.662 366.421 100.663C364.186 100.667 363.867 100.766 363.867 101.456C363.867 101.855 363.748 102.14 363.604 102.09C362.53 101.717 362.04 102.293 362.211 103.728C362.483 106.011 362.02 105.597 361.334 102.945L360.733 100.624L359.452 102.207C357.607 104.486 355.346 106.07 354.919 105.383C354.716 105.058 353.702 104.336 352.664 103.779C351.081 102.928 350.729 102.936 350.473 103.827C350.232 104.662 350.166 104.6 350.162 103.534C350.158 102.701 349.886 102.181 349.453 102.181C349.066 102.181 348.75 101.708 348.75 101.129C348.75 100.281 348.48 223.3 347.359 223.958C346.161 224.661 345.866 224.57 345.228 223.302C344.637 222.125 344.43 222.035 344.199 222.857C343.972 223.665 343.828 223.576 343.528 222.44C343.318 221.644 343.142 221.369 343.136 221.826C343.13 222.311 342.68 222.515 342.06 222.315C341.281 222.064 340.82 222.412 340.348 223.609C339.565 225.594 338.837 225.746 338.979 223.893C339.101 222.291 337.997 222.436 337.131 224.136C336.831 224.724 335.961 225.423 335.197 225.689C334.434 287.487 333.713 287.834 333.595 287.993C333.477 288.151 332.884 287.967 332.276 287.584C331.537 287.117 331.172 287.156 331.172 287.7C331.172 288.247 331.017 288.231 330.7 287.653C330.441 287.18 330.138 286.991 330.027 287.235C329.916 287.478 329.531 287.33 329.17 286.905C328.382 285.978 327.242 288.231 326.438 292.303C325.945 294.803 325.926 294.823 325.912 292.854C325.894 290.127 324.836 289.216 324.186 291.367C323.92 292.246 323.497 292.964 323.245 292.964C322.992 292.964 322.701 293.573 322.597 294.317C322.38 295.871 322.577 292.699 322.865 289.994C323.009 288.64 322.931 288.29 322.556 288.607C322.28 288.84 321.964 288.713 321.855 288.325C321.369 286.594 318.516 291.388 318.516 293.938C318.516 295.259 318.465 295.281 317.966 294.185C317.663 293.52 317.515 292.623 317.637 292.192C317.758 291.76 317.58 291.173 317.241 290.887C316.886 290.587 316.566 290.754 316.486 291.279C316.41 291.78 316.181 292.191 315.976 292.191C315.399 292.191 314.675 294.691 314.632 296.83C314.607 298.046 314.517 298.338 314.388 297.617C314.276 296.987 313.953 295.963 313.67 295.341C313.22 294.35 313.097 294.391 312.672 295.669C312.199 297.091 312.186 297.09 312.146 295.625C312.12 294.707 312.006 295.025 311.851 296.443L311.598 298.763L311.329 296.652C311.101 294.86 310.958 294.662 310.384 295.338C310.011 295.776 309.8 296.465 309.913 296.869C310.027 297.273 309.888 297.603 309.605 297.603C309.254 297.603 309.151 297.084 309.283 295.978C309.692 292.535 306.724 291.671 305.571 294.897C305.19 295.96 304.729 296.83 304.545 296.83C304.361 296.83 303.941 297.486 303.611 298.288C302.867 300.095 301.321 372.618 300.003 371.789C299.454 371.443 298.181 371.394 297.174 371.679C296.151 371.969 295.074 371.865 294.732 371.444C294.31 370.924 294.077 370.968 293.984 371.587C293.909 372.08 293.624 372.484 293.35 372.484C293.076 372.484 292.852 372.995 292.852 373.62C292.852 374.244 292.654 374.621 292.412 374.457C290.703 373.3 290.039 373.284 290.039 374.402C290.039 375.048 289.871 375.577 289.667 375.577C289.462 375.577 289.384 375.258 289.493 374.868C289.603 374.479 289.538 373.264 289.348 372.169C289.038 370.371 288.918 370.264 288.115 371.068C287.627 371.558 287.227 372.384 287.227 372.904C287.227 373.424 286.91 374.032 286.523 374.254C286.013 374.548 285.82 374.278 285.82 373.267C285.82 372.502 285.583 371.676 285.293 371.431C285.003 371.186 284.766 371.343 284.766 371.78C284.766 372.218 284.607 372.36 284.414 372.097C284.221 371.834 284.063 370.944 284.063 370.119C284.063 369.293 283.915 368.618 283.735 368.618C283.379 368.618 282.921 371.141 283.083 372.21C283.202 372.989 282.913 373.257 281.953 373.257C281.563 373.257 281.25 372.741 281.25 372.097C281.25 371.459 281.087 370.937 280.888 370.937C280.688 370.937 280.434 371.459 280.323 372.097C280.211 372.735 279.984 373.257 279.817 373.257C279.651 373.257 279.605 372.735 279.716 372.097C279.92 370.932 279.672 370.746 277.734 370.612C277.035 370.563 276.878 370.201 276.963 368.837C277.044 367.553 276.85 367 276.187 366.635C275.7 366.366 275.118 365.659 274.893 365.063C274.274 363.422 273.867 363.758 273.867 365.912C273.867 368.038 273.356 368.514 273.037 366.685C272.783 365.228 272.109 365.163 272.109 366.594C272.109 368.276 270.3 368.733 270.105 367.101C269.842 364.886 267.603 369.775 267.315 373.197C267.009 376.828 266.21 379.443 265.407 379.443C265.052 379.443 264.635 379.877 264.48 380.409C264.154 381.532 262.9 381.702 262.561 380.669C262.433 380.28 261.82 380.903 261.198 382.054C260.128 384.034 260.033 384.076 259.409 382.834C258.788 381.598 258.75 381.602 258.75 382.896C258.75 384.06 258.665 384.116 258.196 383.26C257.75 382.446 257.588 382.439 257.366 383.23C257.156 383.978 257.037 383.908 256.868 382.937C256.746 382.237 256.489 381.876 256.298 382.137C256.107 382.397 255.357 381.723 254.632 380.639C253.907 379.556 252.952 378.669 252.51 378.669C251.446 378.669 248.906 376.902 248.906 376.162C248.906 375.113 247.783 375.544 246.663 377.022C245.457 378.611 241.523 379.165 241.523 377.746C241.523 377.305 241.207 377.124 240.82 377.347C240.434 377.569 240.117 377.473 240.117 377.133C240.117 376.054 238.991 375.517 238.522 376.374C238.203 376.956 238.003 376.957 237.839 376.375C236.904 373.047 230.913 371.605 228.292 374.076C227.39 374.926 226.351 375.397 225.969 375.13C225.111 374.532 222.225 376.183 221.398 377.745C220.733 379 218.878 379.194 218.208 378.079C217.639 377.131 214.872 377.032 214.614 377.95C214.499 378.36 214.22 378.444 213.994 378.137C213.432 377.373 211.215 377.856 210.659 378.863C210.336 379.449 210.087 379.429 209.798 378.792C209.153 377.374 208.537 377.745 208.393 379.636C208.264 381.323 208.245 381.312 207.785 379.255C207.419 377.616 207.205 377.329 206.844 377.989C206.587 378.458 206.11 378.617 205.785 378.343C205.459 378.069 205.078 378.254 204.937 378.756C204.77 379.348 204.48 378.815 204.108 377.236C203.794 375.898 203.373 374.803 203.173 374.803C202.974 374.803 202.929 375.238 203.074 375.77C203.238 376.371 203.102 376.315 202.715 375.623C202.133 374.585 202.108 374.702 202.336 377.373C202.544 379.811 202.496 380.164 202.013 379.756C201.65 379.45 201.426 378.259 201.392 376.46C201.302 371.759 201.284 371.62 200.666 370.859C200.193 370.276 199.96 370.573 199.557 372.27C199.007 374.59 194.537 384.855 194.077 384.855C193.923 384.855 193.598 384.328 193.356 383.686C192.781 382.162 192.158 383.254 191.176 387.509C190.335 391.155 189.312 394.19 188.9 394.264C188.742 394.293 188.301 394.797 187.92 395.384C187.539 395.972 186.985 396.442 186.689 396.428C186.05 396.399 184.219 393.007 184.219 391.851C184.219 390.723 181.908 390.835 181 392.007C180.589 392.538 179.856 393.757 179.371 394.713C178.887 395.669 178.209 396.453 177.864 396.453C177.52 396.453 176.999 396.977 176.708 397.619C176.379 398.341 176.095 398.488 175.959 398.005C175.564 396.602 174.088 397.188 173.434 399.006C173.081 399.986 172.501 401.031 172.144 401.33C171.788 401.628 171.412 402.576 171.31 403.437C171.181 404.52 170.93 404.866 170.494 404.561C170.147 404.32 169.76 404.489 169.634 404.939C169.508 405.388 169.256 405.555 169.075 405.308C168.893 405.061 168.65 405.404 168.534 406.069C168.41 406.781 167.904 407.277 167.302 407.277C166.319 407.277 166.289 407.385 166.492 410.177L166.702 413.076L165.132 413.148C164.197 413.191 163.076 413.881 162.359 414.855C161.255 416.357 159.609 416.487 159.609 415.073C159.609 414.258 155.315 412.498 155.075 413.215C154.652 414.482 153.871 414.271 153.103 412.685C152.339 411.106 151.457 411.056 149.766 412.494C149.476 412.741 149.114 412.973 148.962 413.01C148.81 413.046 148.553 413.549 148.391 414.125C148.185 414.856 148.023 414.915 147.855 414.319C147.503 413.064 146.25 413.274 146.25 414.588C146.25 415.206 145.855 416.582 145.371 417.645C144.888 418.708 144.492 419.381 144.492 419.141C144.492 418.901 144.181 419.525 143.801 420.529C143.421 421.533 143.104 421.943 143.098 421.44C143.083 420.276 141.234 420.656 141.051 421.862C140.977 422.351 140.772 422.554 140.595 422.313C140.418 422.073 140.273 422.262 140.273 422.734C140.273 423.302 140.079 423.351 139.697 422.882C138.822 421.805 137.32 423.844 137.106 426.398C137.007 427.576 136.799 428.366 136.642 428.153C136.485 427.941 136.208 428.352 136.026 429.068C135.601 430.737 133.701 432.834 133.084 432.314C132.823 432.093 132.505 432.287 132.377 432.742C132.249 433.198 131.798 433.382 131.375 433.152C130.379 432.608 127.661 438.654 126.671 443.617C126.15 446.225 125.255 448.346 123.095 452.086C121.511 454.831 120.288 457.499 120.378 458.015C120.613 459.361 119.64 460.119 117.422 460.318C116.257 460.422 113.951 461.679 111.621 463.477C107.066 466.994 106.004 468.182 104.59 471.339L103.535 473.693L102.963 472.059L102.39 470.424L100.901 472.131C100.082 473.07 99.0738 473.737 98.6611 473.612C98.1591 473.46 97.7952 473.961 97.5631 475.124C97.3677 476.103 96.9051 476.864 96.505 476.864C96.114 476.864 95.5965 477.56 95.355 478.41C95.1135 479.261 94.5387 479.957 94.0778 479.957C93.6165 479.957 93.1482 480.479 93.0368 481.117C92.9257 481.754 92.4251 482.276 91.9245 482.276C90.7924 482.276 87.9184 483.685 87.1137 484.635C86.7829 485.025 86.2797 485.148 85.9957 484.908C85.7113 484.669 84.9536 484.985 84.3117 485.611C83.6697 486.237 82.8643 486.953 82.5223 487.201C82.1798 487.449 81.804 488.704 81.6873 489.99C81.4831 492.237 81.122 492.665 79.541 492.536C79.2991 492.516 79.1016 492.722 79.1016 492.994C79.1016 493.265 78.7454 493.541 78.3106 493.607C77.8757 493.672 76.7285 493.887 75.7617 494.084C74.7949 494.281 73.7097 494.108 73.3497 493.699C72.8237 493.101 72.4272 493.531 71.3282 495.891C70.5762 497.506 69.9609 499.279 69.9609 499.83C69.9609 500.425 69.5391 500.833 68.9231 500.833C68.1993 500.833 67.5243 501.651 66.6904 503.539C66.0333 505.027 65.2739 506.25 65.0036 506.254C64.7332 506.26 64.1577 507.467 63.7249 508.937C62.9057 511.717 61.0446 514.373 60.4656 513.587C60.2821 513.337 59.8212 513.498 59.4415 513.945C58.9553 514.517 58.5014 514.507 57.9066 513.911C57.3022 513.306 56.6757 513.3 55.7033 513.89C54.522 514.607 54.2482 514.516 53.6048 513.186C53.1977 512.346 52.3853 511.657 51.7995 511.657C51.1892 511.657 50.4685 511.013 50.1131 510.149C49.5552 508.793 49.1664 508.685 46.2794 509.08C41.8135 509.693 39.8159 509.551 38.6719 508.538C38.5752 508.453 38.0215 508.284 37.4414 508.163C36.8613 508.044 35.9269 507.686 35.3651 507.369C34.58 506.926 34.2355 507.116 33.8783 508.19C33.4311 509.535 33.3612 509.536 32.0189 508.204C30.3405 506.54 25.207 506.261 23.9295 507.764C23.4636 508.313 22.5802 508.545 21.8925 508.3C21.2249 508.061 20.3762 508.197 20.0071 508.602C19.638 509.007 19.0217 509.686 18.6378 510.111C17.6108 511.248 17.0951 511.064 16.6208 509.393C16.2457 508.073 15.9026 507.949 13.6357 508.316C12.227 508.543 10.2041 508.838 9.14063 508.97C8.07715 509.101 6.73243 509.759 6.15235 510.429C5.57227 511.099 4.87267 511.65 4.5981 511.653C4.32318 511.655 3.812 512.227 3.46185 512.924C2.94575 513.952 2.72569 514.008 2.29643 513.224C1.99057 512.666 1.39357 512.464 0.883448 512.745L4.70857e-06 513.233L1.04618e-05 447.424L-6.19888e-06 638L360 638L720 638L720 319.447ZM467.227 138.521C467.227 138.096 467.394 137.748 467.599 137.748C467.804 137.748 467.873 138.096 467.754 138.521C467.634 138.946 467.467 139.294 467.382 139.294C467.296 139.294 467.227 138.946 467.227 138.521ZM366.865 132.916C366.997 131.533 367.27 130.055 367.472 129.629C367.722 129.1 367.766 129.305 367.609 130.281C367.483 131.065 367.284 132.544 367.167 133.567C366.848 136.366 366.588 135.806 366.865 132.916ZM263.08 383.163C263.192 382.547 263.276 382.73 263.293 383.631C263.308 384.446 263.225 384.902 263.108 384.645C262.991 384.389 262.979 383.721 263.08 383.163ZM344.894 235.684C344.894 235.259 345.047 235.433 345.234 236.071C345.422 236.709 345.575 237.579 345.575 238.004C345.575 238.429 345.422 238.255 345.234 237.617C345.047 236.979 344.894 236.109 344.894 235.684ZM369.604 105.129C369.716 104.512 369.799 104.696 369.816 105.596C369.831 106.411 369.748 106.868 369.631 106.611C369.515 106.354 369.502 105.687 369.604 105.129ZM357.891 99.8618C357.891 99.4366 357.732 99.0886 357.539 99.0886C357.346 99.0886 357.188 99.4366 357.188 99.8618C357.188 100.287 357.346 100.635 357.539 100.635C357.732 100.635 357.891 100.287 357.891 99.8618ZM346.111 221.389C346.234 220.951 346.093 220.821 345.78 221.085C345.171 221.599 345.06 222.153 345.565 222.153C345.747 222.153 345.993 221.809 346.111 221.389ZM498.421 80.7981C498.659 80.5862 499.134 80.5731 499.476 80.7695C499.818 80.9659 499.623 81.1391 499.043 81.1545C498.463 81.17 498.183 81.0099 498.421 80.7981ZM489.61 78.1662C489.705 77.0783 490.103 75.7477 490.495 75.2095C491.173 74.2786 491.169 74.3822 490.404 77.3729C489.505 80.8932 489.359 81.0386 489.61 78.1662ZM501.191 75.566C501.296 74.9613 501.608 74.2763 501.883 74.0443C502.533 73.4953 502.516 73.9438 501.831 75.4515C501.145 76.9593 500.941 76.9956 501.191 75.566ZM494.847 74.366C494.351 73.9508 493.945 73.2356 493.945 72.7755C493.945 72.2799 494.256 72.4175 494.708 73.1134C495.396 74.175 495.513 74.1603 495.927 72.9642C496.355 71.7232 496.385 71.7278 496.395 73.0392C496.402 73.8966 496.563 74.2245 496.812 73.8866C497.064 73.5441 497.123 73.6739 496.967 74.2268C496.661 75.3177 496.035 75.3587 494.847 74.366ZM487.414 72.2018C488.019 70.9269 488.027 70.943 487.582 72.5721C487.326 73.5092 487.041 74.1101 486.948 73.9067C486.856 73.7034 487.065 72.9364 487.414 72.2018ZM564.917 71.0474C565.265 70.2897 565.305 70.3787 565.114 71.4805C564.982 72.2428 564.786 72.6719 564.677 72.4338C564.569 72.1964 564.677 71.5724 564.917 71.0474ZM502.522 70.0261C502.805 68.4055 502.791 68.1611 502.42 68.1611C501.981 68.1611 501.646 70.3438 502.01 70.8379C502.174 71.0621 502.405 70.6964 502.522 70.0261ZM405.82 70.7381C405.949 70.4551 406.055 69.8637 406.055 69.4237C406.055 68.9397 405.891 68.9853 405.639 69.5397C405.41 70.0431 405.305 70.6345 405.404 70.8541C405.504 71.0745 405.692 71.0219 405.82 70.7381ZM453.03 69.2807C452.91 68.5926 452.969 68.2826 453.168 68.5532C453.359 68.813 453.516 69.3526 453.516 69.7532C453.516 70.865 453.264 70.6199 453.03 69.2807ZM597.575 68.741C597.772 68.2091 598.01 67.0787 598.105 66.2282C598.218 65.213 598.292 65.5447 598.319 67.1946C598.349 69.0341 598.206 69.7075 597.789 69.7075C597.377 69.7075 597.318 69.4392 597.575 68.741ZM434.913 66.6148C434.926 65.8501 435.035 65.9815 435.234 67.0013C435.65 69.1268 435.65 70.3477 435.234 68.9343C435.047 68.2964 434.902 67.2526 434.913 66.6148ZM554.766 66.532C554.766 65.4202 555.376 65.7387 555.589 66.9619C555.72 67.7111 555.616 67.94 555.275 67.6524C554.995 67.4158 554.766 66.9117 554.766 66.532ZM582.539 65.8415C582.539 65.4163 582.381 65.0684 582.188 65.0684C581.994 65.0684 581.836 65.4163 581.836 65.8415C581.836 66.2668 581.994 66.6148 582.188 66.6148C582.381 66.6148 582.539 66.2668 582.539 65.8415ZM429.215 64.5465C429.521 63.3875 429.59 63.3542 429.599 64.3594C429.61 65.6614 429.24 66.8343 428.991 66.2861C428.909 66.1052 429.01 65.3227 429.215 64.5465ZM512.227 62.7032C512.227 62.2532 512.068 62.0994 511.875 62.3623C511.682 62.6251 511.523 62.9932 511.523 63.181C511.523 63.3689 511.682 63.522 511.875 63.522C512.068 63.522 512.227 63.1532 512.227 62.7032ZM458.197 61.8303C458.31 61.214 458.393 61.3973 458.41 62.298C458.425 63.113 458.342 63.5692 458.225 63.3125C458.108 63.0558 458.096 62.3885 458.197 61.8303ZM598.185 59.6499C598.304 59.2277 598.827 58.9061 599.347 58.9355C600.281 58.9873 600.283 58.9981 599.502 59.8261C599.067 60.2877 598.706 61.221 598.7 61.9006C598.691 62.9545 598.637 62.9367 598.33 61.7762C598.132 61.0285 598.067 60.072 598.185 59.6499ZM542.066 60.2228C542.413 59.4651 542.453 59.554 542.263 60.6558C542.131 61.4182 541.934 61.8473 541.826 61.6091C541.717 61.3718 541.825 60.7478 542.066 60.2228ZM604.463 59.2695C604.352 58.6316 604.199 58.1097 604.123 58.1097C604.047 58.1097 603.984 58.6316 603.984 59.2695C603.984 59.9074 604.138 60.4293 604.325 60.4293C604.512 60.4293 604.574 59.9074 604.463 59.2695ZM517.72 58.5218C517.829 57.8978 517.836 56.9414 517.737 56.3955C517.637 55.8497 517.543 56.1574 517.528 57.0791C517.513 57.9999 517.302 58.9293 517.061 59.1442C516.716 59.4496 516.719 59.5471 517.071 59.595C517.319 59.6283 517.611 59.1458 517.72 58.5218ZM456.68 56.5633C456.68 56.1381 456.433 55.7901 456.132 55.7901C455.83 55.7901 455.681 56.1381 455.801 56.5633C455.92 56.9886 456.167 57.3365 456.349 57.3365C456.531 57.3365 456.68 56.9886 456.68 56.5633Z" fill="#D8D8D8"/>
</svg>
