<svg width="693" height="277" viewBox="0 0 693 277" fill="none" xmlns="http://www.w3.org/2000/svg" preserveAspectRatio="none">
<g clip-path="url(#clip0_227_167)">
<path d="M257.917 19.7608L251.331 9.53269L247.922 11.728L241.336 1.49986L234.517 5.8904L230.127 -0.928345L223.308 3.4622L221.113 0.0528319L214.294 4.44338L212.099 1.03401L201.871 7.61983L199.676 4.21046L168.991 23.9679L171.186 27.3773L160.958 33.9631L163.154 37.3725L156.335 41.763L158.53 45.1724L151.711 49.5629L156.102 56.3817L149.283 60.7722L155.869 71.0003L152.46 73.1956L159.045 83.4237L155.636 85.619L168.808 106.075L172.217 103.88L178.803 114.108L182.212 111.913L188.798 122.141L195.617 117.75L200.007 124.569L206.826 120.179L209.021 123.588L215.84 119.197L218.035 122.607L228.264 116.021L230.459 119.43L261.143 99.6729L258.948 96.2635L269.176 89.6777L266.981 86.2683L273.799 81.8777L271.604 78.4684L278.423 74.0778L274.032 67.2591L280.851 62.8685L274.265 52.6404L277.675 50.4451L271.089 40.217L274.498 38.0218L261.327 17.5655L257.917 19.7608ZM244.795 66.7932L241.386 68.9885L247.972 79.2166L244.562 81.4119L246.757 84.8213L239.939 89.2118L242.134 92.6212L231.906 99.207L229.711 95.7976L222.892 100.188L220.697 96.7788L217.287 98.9741L210.701 88.746L207.292 90.9412L185.339 56.8475L188.749 54.6523L182.163 44.4241L185.572 42.2289L183.377 38.8195L190.196 34.4289L188 31.0196L198.228 24.4337L200.424 27.8431L207.243 23.4526L209.438 26.8619L212.847 24.6667L219.433 34.8948L222.842 32.6995L244.795 66.7932Z" fill="white"/>
<path d="M361.65 2.40503V87.5601H357.595V95.67H349.485V99.725H337.32V95.67H329.21V87.5601H325.155V2.40503H288.66V99.725H292.715V107.835H296.77V115.945H304.88V120H312.99V124.055H345.43V120H353.54V115.945H357.595V111.89H361.65V103.78H365.705V120H398.145V2.40503H361.65Z" fill="white"/>
<path d="M141.939 72.946H137.879V58.5135H133.818V44.0811H129.758V36.8649H125.697V29.6486H121.636V22.4324H113.515V15.2162H101.333V8H64.7879V15.2162H52.6061V22.4324H44.4848V29.6486H36.3636V36.8649H32.303V44.0811H28.2424V51.2973H24.1818V65.7297H20.1212V80.1622H16.0606V101.811H12V181.189H16.0606V202.838H20.1212V217.27H24.1818V231.703H28.2424V238.919H32.303V246.135H36.3636V253.351H44.4848V260.568H52.6061V267.784H64.7879V275H105.394V267.784H117.576V260.568H125.697V253.351H129.758V246.135H133.818V238.919H137.879V224.486H141.939V210.054H146V173.973H109.454V210.054H105.394V231.703H101.333V238.919H93.2121V246.135H72.9091V238.919H64.7879V231.703H60.7273V217.27H56.6667V195.622H52.6061V87.3784H56.6667V65.7297H60.7273V51.2973H64.7879V44.0811H72.9091V36.8649H89.1515V44.0811H97.2727V51.2973H101.333V72.946H105.394V109.027H141.939V72.946Z" fill="white"/>
<path d="M254.379 139V244.686H250.31V232.943H246.241V221.2H242.172V209.457H238.103V197.714H234.034V185.971H229.966V174.229H225.897V162.486H221.828V150.743H217.759V139H173V276H209.621V174.229H213.69V185.971H217.759V197.714H221.828V209.457H225.897V221.2H229.966V232.943H234.034V244.686H238.103V256.429H242.172V268.171H246.241V276H291V139H254.379Z" fill="white"/>
<path d="M303 139V167.286H367.133V249H386.867V167.286H451V139H303Z" fill="white"/>
<path d="M693.32 151V98.285H689.265V90.175H685.21V86.12H677.1V82.065H656.825V73.955H668.99V69.9H681.155V65.845H685.21V61.79H689.265V53.68H693.32V33.405H689.265V25.295H685.21V21.24H681.155V17.185H673.045V13.13H660.88V9.07495H596V151H632.495V90.175H652.77V94.23H656.825V151H693.32ZM632.495 25.295H640.605V29.35H648.715V37.46H652.77V61.79H648.715V69.9H640.605V73.955H632.495V25.295Z" fill="white"/>
<path d="M478.192 240.274L484.289 250.834L488.835 248.209L492.9 255.249L497.446 252.624L501.511 259.664L510.604 254.414L514.669 261.454L528.309 253.579L530.341 257.099L543.981 249.224L546.013 252.744L577.839 234.369L575.807 230.849L589.447 222.974L587.415 219.454L601.055 211.579L596.99 204.539L606.083 199.289L602.019 192.249L606.566 189.624L602.501 182.584L607.048 179.959L598.919 165.88L580.732 176.38L584.797 183.419L575.703 188.669L577.736 192.189L514.083 228.939L512.05 225.419L498.411 233.294L496.378 229.774L491.832 232.399L487.767 225.36L574.153 175.485L572.121 171.965L576.668 169.34L574.635 165.82L579.182 163.195L577.15 159.675L581.696 157.05L579.664 153.53L584.211 150.905L574.049 133.305L569.503 135.93L563.406 125.37L558.859 127.995L554.795 120.955L545.702 126.205L541.637 119.165L527.997 127.04L525.965 123.52L512.325 131.395L510.293 127.875L483.013 143.625L485.045 147.145L471.405 155.02L473.438 158.54L459.798 166.415L463.862 173.455L454.769 178.705L458.833 185.745L454.287 188.37L458.351 195.41L453.805 198.035L459.901 208.595L455.355 211.22L473.645 242.899L478.192 240.274ZM473.541 200.72L478.088 198.095L476.056 194.575L489.696 186.7L487.663 183.18L537.676 154.305L539.709 157.825L553.349 149.95L555.381 153.47L559.927 150.845L566.024 161.405L479.638 211.28L473.541 200.72Z" fill="white"/>
</g>
<defs>
<clipPath id="clip0_227_167">
<rect width="693" height="277" fill="white"/>
</clipPath>
</defs>
</svg>
