<svg width="693" height="277" viewBox="0 0 693 277" fill="none" xmlns="http://www.w3.org/2000/svg" preserveAspectRatio="none">
<g clip-path="url(#clip0_204_411)">
<path d="M243.917 19.7608L237.331 9.53268L233.922 11.728L227.336 1.49984L220.517 5.89038L216.127 -0.92836L209.308 3.46219L207.113 0.0528167L200.294 4.44336L198.099 1.03399L187.871 7.61981L185.676 4.21044L154.991 23.9679L157.186 27.3773L146.958 33.9631L149.154 37.3725L142.335 41.763L144.53 45.1724L137.711 49.5629L142.102 56.3817L135.283 60.7722L141.869 71.0003L138.46 73.1956L145.045 83.4237L141.636 85.619L154.808 106.075L158.217 103.88L164.803 114.108L168.212 111.913L174.798 122.141L181.617 117.75L186.007 124.569L192.826 120.179L195.021 123.588L201.84 119.197L204.035 122.607L214.264 116.021L216.459 119.43L247.143 99.6729L244.948 96.2635L255.176 89.6777L252.981 86.2683L259.799 81.8777L257.604 78.4684L264.423 74.0778L260.032 67.2591L266.851 62.8685L260.265 52.6404L263.675 50.4451L257.089 40.217L260.498 38.0218L247.327 17.5655L243.917 19.7608ZM230.795 66.7932L227.386 68.9885L233.972 79.2166L230.562 81.4119L232.757 84.8213L225.939 89.2118L228.134 92.6212L217.906 99.207L215.711 95.7976L208.892 100.188L206.697 96.7788L203.287 98.9741L196.701 88.746L193.292 90.9412L171.339 56.8475L174.749 54.6523L168.163 44.4241L171.572 42.2289L169.377 38.8195L176.196 34.4289L174 31.0196L184.228 24.4337L186.424 27.8431L193.243 23.4526L195.438 26.8619L198.847 24.6667L205.433 34.8948L208.842 32.6995L230.795 66.7932Z" fill="white"/>
<path d="M347.65 10.405V95.5601H343.595V103.67H335.485V107.725H323.32V103.67H315.21V95.5601H311.155V10.405H274.66V107.725H278.715V115.835H282.77V123.945H290.88V128H298.99V132.055H331.43V128H339.54V123.945H343.595V119.89H347.65V111.78H351.705V128H384.145V10.405H347.65Z" fill="white"/>
<path d="M129.939 72.946H125.879V58.5135H121.818V44.0811H117.758V36.8649H113.697V29.6486H109.636V22.4324H101.515V15.2162H89.3333V8H52.7879V15.2162H40.6061V22.4324H32.4848V29.6486H24.3636V36.8649H20.303V44.0811H16.2424V51.2973H12.1818V65.7297H8.12121V80.1622H4.06061V101.811H0V181.189H4.06061V202.838H8.12121V217.27H12.1818V231.703H16.2424V238.919H20.303V246.135H24.3636V253.351H32.4848V260.568H40.6061V267.784H52.7879V275H93.3939V267.784H105.576V260.568H113.697V253.351H117.758V246.135H121.818V238.919H125.879V224.486H129.939V210.054H134V173.973H97.4545V210.054H93.3939V231.703H89.3333V238.919H81.2121V246.135H60.9091V238.919H52.7879V231.703H48.7273V217.27H44.6667V195.622H40.6061V87.3784H44.6667V65.7297H48.7273V51.2973H52.7879V44.0811H60.9091V36.8649H77.1515V44.0811H85.2727V51.2973H89.3333V72.946H93.3939V109.027H129.939V72.946Z" fill="white"/>
<path d="M254.21 134.075V243.56H250.155V231.395H246.1V219.23H242.045V207.065H237.99V194.9H233.935V182.735H229.88V170.57H225.825V158.405H221.77V146.24H217.715V134.075H173.11V276H209.605V170.57H213.66V182.735H217.715V194.9H221.77V207.065H225.825V219.23H229.88V231.395H233.935V243.56H237.99V255.725H242.045V267.89H246.1V276H290.705V134.075H254.21Z" fill="white"/>
<path d="M303 144V172.286H367.133V254H386.867V172.286H451V144H303Z" fill="white"/>
<path d="M693.32 151V98.285H689.265V90.175H685.21V86.12H677.1V82.065H656.825V73.955H668.99V69.9H681.155V65.845H685.21V61.79H689.265V53.68H693.32V33.405H689.265V25.295H685.21V21.24H681.155V17.185H673.045V13.13H660.88V9.07495H596V151H632.495V90.175H652.77V94.23H656.825V151H693.32ZM632.495 25.295H640.605V29.35H648.715V37.46H652.77V61.79H648.715V69.9H640.605V73.955H632.495V25.295Z" fill="white"/>
<path d="M479.192 239.274L485.289 249.834L489.835 247.209L493.9 254.249L498.446 251.624L502.511 258.664L511.604 253.414L515.669 260.454L529.309 252.579L531.341 256.099L544.981 248.224L547.013 251.744L578.839 233.369L576.807 229.849L590.447 221.974L588.415 218.454L602.055 210.579L597.99 203.539L607.083 198.289L603.019 191.249L607.566 188.624L603.501 181.584L608.048 178.959L599.919 164.88L581.732 175.38L585.797 182.419L576.703 187.669L578.736 191.189L515.083 227.939L513.05 224.419L499.411 232.294L497.378 228.774L492.832 231.399L488.767 224.36L575.153 174.485L573.121 170.965L577.668 168.34L575.635 164.82L580.182 162.195L578.15 158.675L582.696 156.05L580.664 152.53L585.211 149.905L575.049 132.305L570.503 134.93L564.406 124.37L559.859 126.995L555.795 119.955L546.702 125.205L542.637 118.165L528.997 126.04L526.965 122.52L513.325 130.395L511.293 126.875L484.013 142.625L486.045 146.145L472.405 154.02L474.438 157.54L460.798 165.415L464.862 172.455L455.769 177.705L459.833 184.745L455.287 187.37L459.351 194.41L454.805 197.035L460.901 207.595L456.355 210.22L474.645 241.899L479.192 239.274ZM474.541 199.72L479.088 197.095L477.056 193.575L490.696 185.7L488.663 182.18L538.676 153.305L540.709 156.825L554.349 148.95L556.381 152.47L560.927 149.845L567.024 160.405L480.638 210.28L474.541 199.72Z" fill="white"/>
</g>
<defs>
<clipPath id="clip0_204_411">
<rect width="693" height="277" fill="white"/>
</clipPath>
</defs>
</svg>
