<svg width="643" height="521" viewBox="0 0 643 521" fill="none" xmlns="http://www.w3.org/2000/svg">
<path d="M310.587 471.181L242.587 353.402L246.097 351.375L242.097 344.447L249.116 340.394L245.116 333.466L269.684 319.282L229.684 250L208.626 262.158L212.626 269.086L205.607 273.139L213.606 286.995L210.097 289.021L218.097 302.878L214.587 304.904L226.587 325.689L223.077 327.715L191.077 272.289L163 288.5L279 489.418L310.587 471.181Z" fill="#1E1A1A"/>
<path d="M314.055 229.24H358.66V221.13H314.055V229.24ZM318.11 359H354.605V241.405H318.11V359Z" fill="#1E1A1A"/>
<path d="M514.155 218V230.165H510.1V242.33H506.045V254.495H501.99V266.66H497.935V278.825H493.88V290.99H489.825V303.155H485.77V315.32H481.715V323.43H477.66V315.32H473.605V303.155H469.55V290.99H465.495V278.825H461.44V266.66H457.385V254.495H453.33V242.33H449.275V230.165H445.22V218H429V230.165H433.055V242.33H437.11V254.495H441.165V266.66H445.22V278.825H449.275V290.99H453.33V303.155H457.385V315.32H461.44V327.485H465.495V339.65H469.55V351.815H473.605V359.925H506.045V351.815H510.1V339.65H514.155V327.485H518.21V315.32H522.265V303.155H526.32V290.99H530.375V278.825H534.43V266.66H538.485V254.495H542.54V242.33H546.595V230.165H550.65V218H514.155Z" fill="#1E1A1A"/>
<path d="M533.11 460.45V472.615H537.165V480.725H541.22V488.835H549.33V496.945H561.495V501H573.66V505.055H602.045V501H614.21V496.945H626.375V488.835H634.485V480.725H638.54V472.615H642.595V456.395H626.375V464.505H618.265V468.56H561.495V464.505H549.33V460.45H545.275V452.34H622.32V448.285H626.375V444.23H630.43V440.175H634.485V436.12H638.54V415.845H634.485V403.68H630.43V395.57H622.32V387.46H610.155V383.405H597.99V379.35H573.66V383.405H561.495V387.46H549.33V395.57H541.22V403.68H537.165V411.79H533.11V423.955H529.055V460.45H533.11ZM545.275 423.955H549.33V419.9H561.495V415.845H606.1V419.9H618.265V423.955H622.32V436.12H545.275V423.955Z" fill="#1E1A1A"/>
<path d="M237.344 91.5714H229.688V83.4571H222.031V75.3429H214.375V71.2857H206.719V67.2286H199.062V63.1714H183.75V59.1143H168.438V55.0572H145.469V51H0V193H145.469V188.943H168.438V184.886H183.75V180.829H199.062V176.771H206.719V172.714H214.375V168.657H222.031V160.543H229.688V152.429H237.344V140.257H245V103.743H237.344V91.5714ZM160.781 148.371V160.543H153.125V168.657H145.469V172.714H130.156V176.771H68.9063V67.2286H130.156V71.2857H145.469V75.3429H153.125V83.4571H160.781V95.6286H168.438V148.371H160.781Z" fill="#1E1A1A"/>
<path d="M302.605 53.2399V49.1849H314.77V45.1299H326.935V41.0749H339.1V37.0199H351.265V28.9099H335.045V32.9649H322.88V37.0199H310.715V41.0749H298.55V45.1299H286.385V53.2399H302.605ZM266.11 142.45V154.615H270.165V162.725H274.22V170.835H282.33V178.945H294.495V183H306.66V187.055H335.045V183H347.21V178.945H359.375V170.835H367.485V162.725H371.54V154.615H375.595V138.395H359.375V146.505H351.265V150.56H294.495V146.505H282.33V142.45H278.275V134.34H355.32V130.285H359.375V126.23H363.43V122.175H367.485V118.12H371.54V97.845H367.485V85.6799H363.43V77.5699H355.32V69.4599H343.155V65.4049H330.99V61.3499H306.66V65.4049H294.495V69.4599H282.33V77.5699H274.22V85.6799H270.165V93.7899H266.11V105.955H262.055V142.45H266.11ZM278.275 105.955H282.33V101.9H294.495V97.845H339.1V101.9H351.265V105.955H355.32V118.12H278.275V105.955ZM302.605 195.165C295.914 195.165 290.44 189.691 290.44 183C290.44 176.309 295.914 170.835 302.605 170.835C309.296 170.835 314.77 176.309 314.77 183C314.77 189.691 309.296 195.165 302.605 195.165Z" fill="#1E1A1A"/>
</svg>
