<svg width="1071" height="482" viewBox="0 0 1071 482" fill="none" xmlns="http://www.w3.org/2000/svg">
<ellipse cx="105.52" cy="310.559" rx="25.3518" ry="158.449" fill="black"/>
<ellipse cx="170.193" cy="78.2043" rx="54.2808" ry="176.956" transform="rotate(-106.966 170.193 78.2043)" fill="black"/>
<ellipse cx="170.193" cy="78.2043" rx="54.2808" ry="176.956" transform="rotate(-106.966 170.193 78.2043)" fill="black"/>
<ellipse cx="170.193" cy="78.2043" rx="54.2808" ry="176.956" transform="rotate(-106.966 170.193 78.2043)" fill="black"/>
<ellipse cx="427.327" cy="72.5386" rx="54.2808" ry="92.3833" transform="rotate(-106.966 427.327 72.5386)" fill="black"/>
<ellipse cx="315.588" cy="304.478" rx="42.668" ry="176.956" transform="rotate(-171.755 315.588 304.478)" fill="black"/>
<ellipse rx="27.1272" ry="119.293" transform="matrix(-0.402631 -0.915362 0.978335 -0.207029 129.88 256.579)" fill="black"/>
<ellipse rx="27.1272" ry="119.293" transform="matrix(-0.402631 -0.915362 0.978335 -0.207029 129.88 256.579)" fill="black"/>
<ellipse rx="27.1272" ry="119.293" transform="matrix(-0.665266 -0.746606 0.866824 -0.498614 630.489 73.3965)" fill="black"/>
<ellipse rx="27.1272" ry="119.293" transform="matrix(-0.402631 -0.915362 0.978335 -0.207029 653.568 150.936)" fill="black"/>
<ellipse rx="27.1272" ry="119.293" transform="matrix(0.0312442 -0.999512 0.972023 0.234886 657.529 238.935)" fill="black"/>
<ellipse rx="31.7432" ry="139.592" transform="matrix(-0.810759 0.58538 0.738741 0.67399 882.961 300.691)" fill="black"/>
<ellipse rx="31.7432" ry="139.592" transform="matrix(-0.402631 0.915362 0.978335 0.207029 926.69 180.49)" fill="black"/>
<ellipse rx="31.7432" ry="139.592" transform="matrix(-0.184878 0.982761 0.999802 -0.0199026 929.113 88.9031)" fill="black"/>
<ellipse rx="33.1812" ry="100.522" transform="matrix(0.38331 -0.92362 0.825771 0.564006 452.652 211.988)" fill="black"/>
</svg>
