<svg width="674" height="136" viewBox="0 0 674 136" fill="none" xmlns="http://www.w3.org/2000/svg">
<g clip-path="url(#clip0)">
<path d="M42.9656 135.078C59.9651 135.078 68.6537 124.122 68.6537 109.39C68.6537 100.134 65.6316 95.9787 61.6651 87.4789C77.3424 87.4789 85.0866 77.4681 85.0866 64.2463C85.0866 48.7579 71.487 42.7136 64.3094 40.0692C73.7536 37.8026 84.8977 35.1583 85.0866 20.0476C85.2755 4.37026 67.1427 0.214844 50.1432 0.214844C7.83333 0.214844 0.0891113 26.6585 0.0891113 58.3909C0.0891113 82.3791 9.72216 135.078 42.9656 135.078ZM72.2425 17.9699C69.4093 17.9699 66.576 8.71458 53.5431 5.50357C64.6872 6.63687 73.3758 11.5479 73.3758 15.7033C73.3758 17.0255 72.9981 17.9699 72.2425 17.9699ZM63.9317 50.4578C71.8647 51.4022 78.0979 55.1799 78.0979 58.7687C78.0979 59.902 77.7201 60.6575 77.1535 60.6575C75.0758 60.6575 73.1869 53.1022 63.9317 50.4578Z" fill="black"/>
<path d="M129.766 99.4756C134.11 114.019 137.888 134.985 156.02 134.985C165.842 134.985 174.342 129.508 174.342 116.097C174.342 100.798 163.387 86.2537 150.165 84.5538V83.6094C158.476 79.8317 167.542 73.7874 167.542 59.6212C167.542 37.8996 153.187 26 121.833 26C89.5332 26 85 53.0103 85 76.2429C85 95.1312 89.5332 136.307 116.922 136.307C126.932 136.307 129.766 121.386 129.766 112.319C129.766 108.164 129.199 103.631 128.821 99.4756H129.766ZM148.465 42.6217C143.743 42.6217 140.343 33.5553 120.322 30.3443C137.321 31.4776 150.165 36.3885 150.165 40.544C150.165 41.8662 149.41 42.6217 148.465 42.6217ZM135.054 80.5872C131.277 80.5872 128.443 77.3762 128.443 74.3541C128.443 72.0875 130.71 70.9542 132.599 70.9542C135.999 70.9542 139.588 74.543 139.588 77.3762C139.588 78.8873 138.265 80.5872 135.054 80.5872ZM134.299 86.8204C127.499 85.876 122.21 81.7205 122.21 78.3206C122.21 77.1873 122.399 76.4318 122.966 76.4318C124.666 76.4318 126.177 84.176 134.299 86.8204ZM146.199 89.087C154.321 90.0314 160.176 93.9979 160.176 97.7756C160.176 98.72 159.987 99.4756 159.42 99.4756C157.343 99.4756 155.832 91.5425 146.199 89.087Z" fill="black"/>
<path d="M220.995 85.9681C234.784 82.0015 240.262 74.2573 240.45 65.3798C240.639 50.0802 229.306 41.9583 210.229 42.9027V42.1471C218.54 40.6361 229.306 40.0694 229.306 27.6031C229.306 16.459 212.307 13.248 195.874 13.248C175.097 13.248 162.253 18.3479 162.064 42.5249C161.686 68.213 168.108 125.634 201.918 125.634C210.04 125.634 242.15 119.589 242.15 102.968C242.528 87.668 229.306 85.9681 220.995 88.0458V85.9681ZM218.729 25.5254C216.651 25.5254 214.762 20.2367 206.263 18.3479C213.629 18.9145 219.484 21.7478 219.484 24.2032C219.484 24.9588 219.107 25.5254 218.729 25.5254ZM225.718 57.8245C223.262 57.8245 220.807 49.8914 210.04 47.247C219.296 48.1914 226.662 52.3468 226.662 55.9356C226.662 57.0689 226.284 57.8245 225.718 57.8245ZM220.807 92.3901C228.362 92.9568 234.028 95.6011 234.028 98.2455C234.028 99.001 233.651 99.5677 233.273 99.5677C231.384 99.5677 229.306 94.2789 220.807 92.3901Z" fill="black"/>
<path d="M292.565 85.9681C306.353 82.0015 311.831 74.2573 312.019 65.3798C312.208 50.0802 300.875 41.9583 281.798 42.9027V42.1471C290.109 40.6361 300.875 40.0694 300.875 27.6031C300.875 16.459 283.876 13.248 267.443 13.248C246.666 13.248 233.822 18.3479 233.633 42.5249C233.255 68.213 239.677 125.634 273.487 125.634C281.609 125.634 313.719 119.589 313.719 102.968C314.097 87.668 300.875 85.9681 292.565 88.0458V85.9681ZM290.298 25.5254C288.22 25.5254 286.331 20.2367 277.832 18.3479C285.198 18.9145 291.053 21.7478 291.053 24.2032C291.053 24.9588 290.676 25.5254 290.298 25.5254ZM297.287 57.8245C294.831 57.8245 292.376 49.8914 281.609 47.247C290.865 48.1914 298.231 52.3468 298.231 55.9356C298.231 57.0689 297.853 57.8245 297.287 57.8245ZM292.376 92.3901C299.931 92.9568 305.597 95.6011 305.597 98.2455C305.597 99.001 305.22 99.5677 304.842 99.5677C302.953 99.5677 300.875 94.2789 292.376 92.3901Z" fill="black"/>
<path d="M379.376 99.9219C380.887 114.655 391.087 126.177 406.387 126.177C418.475 126.177 420.742 104.644 420.175 85.0001C418.853 40.9903 409.598 14.5466 395.809 14.5466C384.854 14.5466 382.587 35.1349 382.021 40.8014H381.265C379.943 35.8905 377.676 23.0464 370.31 23.0464C364.077 23.0464 360.866 29.4684 360.299 36.0793H359.733C356.522 25.8796 348.211 13.98 338.955 13.98C325.922 13.98 323.467 35.7016 324.034 53.2677C324.978 85.3779 340.655 126.555 363.132 126.555C373.332 126.555 376.921 109.366 378.054 99.9219H379.376ZM350.666 32.3017C348.777 32.3017 346.888 21.7242 337.822 18.3243C345.566 19.6465 351.233 25.1241 351.422 30.0351C351.422 31.3573 351.233 32.3017 350.666 32.3017ZM405.064 30.9795C403.553 30.9795 402.042 22.4797 394.298 19.4576C400.72 20.5909 405.631 25.1241 405.82 29.0907C405.82 30.224 405.442 30.9795 405.064 30.9795ZM375.788 34.3794C374.654 34.3794 373.332 28.3351 368.043 26.4463C372.577 27.2018 375.976 30.224 376.165 33.0572C376.165 33.8127 375.788 34.3794 375.788 34.3794Z" fill="black"/>
<path d="M464.111 126.177C495.844 126.177 501.888 88.2114 501.888 72.9119C501.888 46.0904 484.511 14.5469 450.134 14.5469C428.223 14.5469 415.19 39.8573 415.19 60.0678C415.19 94.4446 429.923 126.177 464.111 126.177ZM477.144 37.7796C472.233 37.7796 468.644 24.9355 447.867 20.5912C465.433 22.1023 478.844 28.9021 478.844 34.7575C478.844 36.6463 478.277 37.7796 477.144 37.7796ZM459.011 76.5006C455.045 76.5006 452.4 73.2896 452.4 70.4564C452.4 68.0009 454.667 66.8676 456.556 66.8676C459.956 66.8676 463.356 70.6453 463.356 73.2896C463.356 74.9896 462.222 76.5006 459.011 76.5006ZM458.067 82.7338C451.456 81.7894 446.167 77.8228 446.167 74.2341C446.167 73.1008 446.167 72.3452 446.923 72.3452C448.434 72.3452 450.134 80.2783 458.067 82.7338Z" fill="black"/>
<path d="M540.01 88.7778C544.354 103.322 548.132 124.288 566.265 124.288C576.086 124.288 584.586 118.81 584.586 105.4C584.586 90.0999 573.631 75.5559 560.409 73.856V72.9116C568.72 69.1339 577.786 63.0896 577.786 48.9234C577.786 27.2018 563.431 15.3022 532.077 15.3022C499.778 15.3022 495.244 42.3126 495.244 65.5452C495.244 84.4335 499.778 125.61 527.166 125.61C537.177 125.61 540.01 110.688 540.01 101.622C540.01 97.4664 539.443 92.9332 539.065 88.7778H540.01ZM558.709 31.9239C553.987 31.9239 550.587 22.8575 530.566 19.6465C547.565 20.7798 560.409 25.6908 560.409 29.8462C560.409 31.1684 559.654 31.9239 558.709 31.9239ZM545.299 69.8895C541.521 69.8895 538.688 66.6784 538.688 63.6563C538.688 61.3897 540.954 60.2564 542.843 60.2564C546.243 60.2564 549.832 63.8452 549.832 66.6784C549.832 68.1895 548.51 69.8895 545.299 69.8895ZM544.543 76.1227C537.743 75.1783 532.454 71.0227 532.454 67.6228C532.454 66.4895 532.643 65.734 533.21 65.734C534.91 65.734 536.421 73.4783 544.543 76.1227ZM556.443 78.3892C564.565 79.3336 570.42 83.3003 570.42 87.0779C570.42 88.0223 570.231 88.7778 569.664 88.7778C567.587 88.7778 566.076 80.8447 556.443 78.3892Z" fill="black"/>
<path d="M628.708 99.9223C628.708 102.944 633.43 130.899 654.019 130.899C667.807 130.899 673.662 122.21 673.662 104.266C673.662 78.5785 659.496 69.1343 643.441 65.1678C655.152 60.2568 669.507 47.035 669.507 31.5465C669.507 16.6248 659.496 10.3916 645.897 10.3916C634.564 10.3916 620.208 21.9135 616.997 33.8131H616.431C613.975 21.158 605.098 11.336 597.165 11.336C585.076 11.336 576.388 26.4467 576.388 49.4904C576.388 75.1786 587.909 129.766 608.687 129.766C627.575 129.766 627.764 108.8 627.764 100.111L628.708 99.9223ZM659.496 27.3911C657.23 27.3911 655.152 18.5136 645.708 15.4915C653.83 16.6248 660.063 21.158 660.063 25.3134C660.063 26.4467 659.874 27.3911 659.496 27.3911ZM608.309 29.2799C606.042 28.9022 605.098 19.8358 596.031 15.4915C604.153 17.7581 609.631 23.0468 609.253 27.2022C609.064 28.3355 608.498 29.2799 608.309 29.2799ZM643.819 71.9675C652.696 73.1008 659.496 77.4452 659.496 81.2228C659.496 82.1673 659.118 83.1117 658.741 83.1117C656.474 83.1117 654.019 74.8008 643.819 71.9675Z" fill="black"/>
</g>
<defs>
<clipPath id="clip0">
<rect width="674" height="136" fill="white"/>
</clipPath>
</defs>
</svg>
