<svg width="674" height="136" viewBox="0 0 674 136" fill="none" xmlns="http://www.w3.org/2000/svg">
<path d="M42.9656 135.078C59.9651 135.078 68.6537 124.122 68.6537 109.39C68.6537 100.134 65.6316 95.9789 61.6651 87.4791C77.3424 87.4791 85.0866 77.4683 85.0866 64.2465C85.0866 48.7581 71.487 42.7138 64.3094 40.0694C73.7536 37.8028 84.8977 35.1585 85.0866 20.0478C85.2755 4.37049 67.1427 0.215073 50.1432 0.215073C7.83333 0.215073 0.0891113 26.6587 0.0891113 58.3911C0.0891113 82.3793 9.72216 135.078 42.9656 135.078ZM72.2425 17.9701C69.4093 17.9701 66.576 8.71481 53.5431 5.5038C64.6872 6.6371 73.3758 11.5481 73.3758 15.7035C73.3758 17.0257 72.9981 17.9701 72.2425 17.9701ZM63.9317 50.458C71.8647 51.4024 78.0979 55.1801 78.0979 58.7689C78.0979 59.9022 77.7201 60.6577 77.1535 60.6577C75.0758 60.6577 73.1869 53.1024 63.9317 50.458Z" fill="black"/>
<path d="M126.442 87.2903C130.786 101.834 134.564 122.8 152.696 122.8C162.518 122.8 171.018 117.323 171.018 103.912C171.018 88.6124 160.063 74.0684 146.841 72.3685V71.4241C155.152 67.6464 164.218 61.6021 164.218 47.4359C164.218 25.7143 149.863 13.8147 118.509 13.8147C86.2095 13.8147 81.6763 40.825 81.6763 64.0576C81.6763 82.9459 86.2095 124.122 113.598 124.122C123.608 124.122 126.442 109.201 126.442 100.134C126.442 95.9789 125.875 91.4457 125.497 87.2903H126.442ZM145.141 30.4364C140.419 30.4364 137.019 21.37 116.998 18.159C133.997 19.2923 146.841 24.2032 146.841 28.3587C146.841 29.6809 146.086 30.4364 145.141 30.4364ZM131.73 68.4019C127.953 68.4019 125.119 65.1909 125.119 62.1688C125.119 59.9022 127.386 58.7689 129.275 58.7689C132.675 58.7689 136.264 62.3577 136.264 65.1909C136.264 66.702 134.941 68.4019 131.73 68.4019ZM130.975 74.6351C124.175 73.6907 118.886 69.5352 118.886 66.1353C118.886 65.002 119.075 64.2465 119.642 64.2465C121.342 64.2465 122.853 71.9907 130.975 74.6351ZM142.875 76.9017C150.997 77.8461 156.852 81.8126 156.852 85.5903C156.852 86.5347 156.663 87.2903 156.096 87.2903C154.019 87.2903 152.508 79.3572 142.875 76.9017Z" fill="black"/>
<path d="M220.995 85.9681C234.784 82.0015 240.262 74.2573 240.45 65.3798C240.639 50.0802 229.306 41.9583 210.229 42.9027V42.1471C218.54 40.6361 229.306 40.0694 229.306 27.6031C229.306 16.459 212.307 13.248 195.874 13.248C175.097 13.248 162.253 18.3479 162.064 42.5249C161.686 68.213 168.108 125.634 201.918 125.634C210.04 125.634 242.15 119.589 242.15 102.968C242.528 87.668 229.306 85.9681 220.995 88.0458V85.9681ZM218.729 25.5254C216.651 25.5254 214.762 20.2367 206.263 18.3479C213.629 18.9145 219.484 21.7478 219.484 24.2032C219.484 24.9588 219.107 25.5254 218.729 25.5254ZM225.718 57.8245C223.262 57.8245 220.807 49.8914 210.04 47.247C219.296 48.1914 226.662 52.3468 226.662 55.9356C226.662 57.0689 226.284 57.8245 225.718 57.8245ZM220.807 92.3901C228.362 92.9568 234.028 95.6011 234.028 98.2455C234.028 99.001 233.651 99.5677 233.273 99.5677C231.384 99.5677 229.306 94.2789 220.807 92.3901Z" fill="black"/>
<path d="M292.565 85.9681C306.353 82.0015 311.831 74.2573 312.019 65.3798C312.208 50.0802 300.875 41.9583 281.798 42.9027V42.1471C290.109 40.6361 300.875 40.0694 300.875 27.6031C300.875 16.459 283.876 13.248 267.443 13.248C246.666 13.248 233.822 18.3479 233.633 42.5249C233.255 68.213 239.677 125.634 273.487 125.634C281.609 125.634 313.719 119.589 313.719 102.968C314.097 87.668 300.875 85.9681 292.565 88.0458V85.9681ZM290.298 25.5254C288.22 25.5254 286.331 20.2367 277.832 18.3479C285.198 18.9145 291.053 21.7478 291.053 24.2032C291.053 24.9588 290.676 25.5254 290.298 25.5254ZM297.287 57.8245C294.831 57.8245 292.376 49.8914 281.609 47.247C290.865 48.1914 298.231 52.3468 298.231 55.9356C298.231 57.0689 297.853 57.8245 297.287 57.8245ZM292.376 92.3901C299.931 92.9568 305.597 95.6011 305.597 98.2455C305.597 99.001 305.22 99.5677 304.842 99.5677C302.953 99.5677 300.875 94.2789 292.376 92.3901Z" fill="black"/>
<path d="M379.376 99.9221C380.887 114.655 391.087 126.177 406.387 126.177C418.475 126.177 420.742 104.644 420.175 85.0003C418.853 40.9905 409.598 14.5468 395.809 14.5468C384.854 14.5468 382.587 35.1351 382.021 40.8016H381.265C379.943 35.8907 377.676 23.0466 370.31 23.0466C364.077 23.0466 360.866 29.4686 360.299 36.0795H359.733C356.522 25.8798 348.211 13.9802 338.955 13.9802C325.922 13.9802 323.467 35.7018 324.034 53.2679C324.978 85.3781 340.655 126.555 363.132 126.555C373.332 126.555 376.921 109.366 378.054 99.9221H379.376ZM350.666 32.3019C348.777 32.3019 346.888 21.7244 337.822 18.3245C345.566 19.6467 351.233 25.1243 351.422 30.0353C351.422 31.3575 351.233 32.3019 350.666 32.3019ZM405.064 30.9797C403.553 30.9797 402.042 22.4799 394.298 19.4578C400.72 20.5911 405.631 25.1243 405.82 29.0909C405.82 30.2242 405.442 30.9797 405.064 30.9797ZM375.788 34.3796C374.654 34.3796 373.332 28.3353 368.043 26.4465C372.577 27.202 375.976 30.2242 376.165 33.0574C376.165 33.8129 375.788 34.3796 375.788 34.3796Z" fill="black"/>
<path d="M464.111 126.177C495.844 126.177 501.888 88.2113 501.888 72.9118C501.888 46.0903 484.511 14.5468 450.134 14.5468C428.223 14.5468 415.19 39.8572 415.19 60.0677C415.19 94.4445 429.923 126.177 464.111 126.177ZM477.144 37.7795C472.233 37.7795 468.644 24.9354 447.867 20.5911C465.433 22.1022 478.844 28.902 478.844 34.7574C478.844 36.6462 478.277 37.7795 477.144 37.7795ZM459.011 76.5005C455.045 76.5005 452.4 73.2895 452.4 70.4563C452.4 68.0008 454.667 66.8675 456.556 66.8675C459.956 66.8675 463.356 70.6452 463.356 73.2895C463.356 74.9895 462.222 76.5005 459.011 76.5005ZM458.067 82.7337C451.456 81.7893 446.167 77.8227 446.167 74.234C446.167 73.1007 446.167 72.3451 446.923 72.3451C448.434 72.3451 450.134 80.2782 458.067 82.7337Z" fill="black"/>
<path d="M540.01 88.778C544.354 103.322 548.132 124.288 566.265 124.288C576.086 124.288 584.586 118.81 584.586 105.4C584.586 90.1001 573.631 75.5561 560.409 73.8562V72.9118C568.72 69.1341 577.786 63.0898 577.786 48.9236C577.786 27.202 563.431 15.3024 532.077 15.3024C499.778 15.3024 495.244 42.3127 495.244 65.5453C495.244 84.4337 499.778 125.61 527.166 125.61C537.177 125.61 540.01 110.688 540.01 101.622C540.01 97.4666 539.443 92.9334 539.065 88.778H540.01ZM558.709 31.9241C553.987 31.9241 550.587 22.8577 530.566 19.6467C547.565 20.78 560.409 25.691 560.409 29.8464C560.409 31.1686 559.654 31.9241 558.709 31.9241ZM545.299 69.8896C541.521 69.8896 538.688 66.6786 538.688 63.6565C538.688 61.3899 540.954 60.2566 542.843 60.2566C546.243 60.2566 549.832 63.8454 549.832 66.6786C549.832 68.1897 548.51 69.8896 545.299 69.8896ZM544.543 76.1228C537.743 75.1784 532.454 71.0229 532.454 67.623C532.454 66.4897 532.643 65.7342 533.21 65.7342C534.91 65.7342 536.421 73.4784 544.543 76.1228ZM556.443 78.3894C564.565 79.3338 570.42 83.3004 570.42 87.078C570.42 88.0224 570.231 88.778 569.664 88.778C567.587 88.778 566.076 80.8449 556.443 78.3894Z" fill="black"/>
<path d="M628.708 99.9221C628.708 102.944 633.43 130.899 654.019 130.899C667.807 130.899 673.662 122.21 673.662 104.266C673.662 78.5783 659.496 69.1341 643.441 65.1676C655.152 60.2566 669.507 47.0348 669.507 31.5463C669.507 16.6246 659.496 10.3914 645.897 10.3914C634.564 10.3914 620.208 21.9133 616.997 33.8129H616.431C613.975 21.1578 605.098 11.3358 597.165 11.3358C585.076 11.3358 576.388 26.4465 576.388 49.4902C576.388 75.1784 587.909 129.766 608.687 129.766C627.575 129.766 627.764 108.8 627.764 100.111L628.708 99.9221ZM659.496 27.3909C657.23 27.3909 655.152 18.5134 645.708 15.4913C653.83 16.6246 660.063 21.1578 660.063 25.3132C660.063 26.4465 659.874 27.3909 659.496 27.3909ZM608.309 29.2797C606.042 28.902 605.098 19.8356 596.031 15.4913C604.153 17.7579 609.631 23.0466 609.253 27.202C609.064 28.3353 608.498 29.2797 608.309 29.2797ZM643.819 71.9673C652.696 73.1006 659.496 77.445 659.496 81.2226C659.496 82.1671 659.118 83.1115 658.741 83.1115C656.474 83.1115 654.019 74.8006 643.819 71.9673Z" fill="black"/>
</svg>
