<svg width="54" height="55" viewBox="0 0 54 55" fill="none" xmlns="http://www.w3.org/2000/svg">
<path d="M21.3112 5.42475C22.9805 5.72036 24.6351 5.95706 26.3235 6.11608C27.6429 6.24034 28.9559 6.31838 30.246 6.64491C32.0106 7.09156 33.7096 7.8197 35.348 8.60299C37.5389 9.65045 39.7508 10.9227 41.163 12.9461C41.8639 13.9504 42.389 15.0659 43.0467 16.0982C43.7007 17.1247 44.4351 18.0958 45.0958 19.1166C46.2711 20.9322 46.924 23.2145 47.2161 25.3438C47.4879 27.325 47.2853 29.362 47.153 31.3502C47.0286 33.2196 46.6887 35.1412 46.1655 36.939C45.5185 39.1626 43.7473 41.0088 42.2371 42.687C41.5436 43.4575 40.8248 44.1905 40.0045 44.8252C38.6794 45.8505 37.3835 47.123 35.7976 47.7297C33.482 48.6155 30.8452 48.3001 28.4221 48.1984C25.5831 48.0793 22.7064 48.0218 19.9075 47.4795C18.9606 47.296 18.0091 47.0497 17.0875 46.7643C16.0692 46.4491 15.1448 45.8957 14.162 45.4906C13.3079 45.1386 12.4233 44.8958 11.5527 44.5931C10.5707 44.2517 9.74245 43.6768 8.90467 43.0699C7.79945 42.2694 6.60844 41.4684 5.64354 40.496C4.68236 39.5273 4.7803 38.0592 4.79062 36.7902C4.80965 34.4475 4.87829 32.2179 5.48514 29.9531C5.81047 28.739 5.98958 27.0905 6.84529 26.1158C9.31649 23.3007 11.8938 20.5334 14.6073 17.9502C15.3714 17.2228 16.2103 16.6548 17.1782 16.2264C18.6647 15.5686 20.4512 15.4414 22.0573 15.4208C24.387 15.3909 26.7677 15.5806 29.0378 16.1092C32.0279 16.8054 35.0065 17.6519 37.4485 19.6177C38.2559 20.2677 38.7744 21.1468 39.2878 22.0293C39.636 22.6279 40.0361 23.228 40.2275 23.9002C40.5304 24.964 40.3497 26.0391 40.2 27.1151C39.8875 29.3603 39.0362 31.5466 38.1782 33.633C37.9397 34.2131 37.565 34.5831 37.1454 35.0402C36.6182 35.6145 36.128 36.2225 35.5033 36.697C34.381 37.5494 32.8755 38.1781 31.5291 38.5669C29.8039 39.0652 27.7801 38.9909 26.0164 38.8062C24.2434 38.6204 22.4172 38.4326 20.8794 37.4621C19.5895 36.6481 18.0766 35.4673 17.7663 33.8672C17.4518 32.2452 17.7059 30.303 18.8564 29.0589C19.7222 28.1225 20.7446 27.3175 21.8693 26.7128C22.4586 26.396 23.1967 26.2589 23.8468 26.4331C24.5673 26.6261 27.4999 24.8417 27.4999 27.1151C29.4383 27.1151 32.4999 33.5 28.9999 33" stroke="black" stroke-width="2" stroke-linecap="round" stroke-linejoin="round"/>
</svg>
