<svg width="22" height="15" viewBox="0 0 22 15" fill="none" xmlns="http://www.w3.org/2000/svg">
<path d="M7.344 0L8.208 1.296C7.2 1.968 6.168 2.808 5.112 3.816C4.104 4.824 3.6 5.736 3.6 6.552C4.8 6.552 5.808 6.864 6.624 7.488C7.488 8.112 7.92 9.072 7.92 10.368C7.92 11.616 7.536 12.624 6.768 13.392C6 14.112 5.064 14.472 3.96 14.472C2.904 14.472 1.968 14.136 1.152 13.464C0.384 12.744 0 11.616 0 10.08C0 8.64 0.384 7.272 1.152 5.976C1.968 4.632 2.928 3.456 4.032 2.448C5.184 1.392 6.288 0.576001 7.344 0ZM20.952 0L21.816 1.296C20.808 1.968 19.776 2.808 18.72 3.816C17.712 4.824 17.208 5.736 17.208 6.552C18.408 6.552 19.416 6.864 20.232 7.488C21.096 8.112 21.528 9.072 21.528 10.368C21.528 11.616 21.144 12.624 20.376 13.392C19.608 14.112 18.672 14.472 17.568 14.472C16.512 14.472 15.576 14.136 14.76 13.464C13.992 12.744 13.608 11.616 13.608 10.08C13.608 8.64 13.992 7.272 14.76 5.976C15.576 4.632 16.536 3.456 17.64 2.448C18.792 1.392 19.896 0.576001 20.952 0Z" fill="white"/>
</svg>
