<svg width="22" height="15" viewBox="0 0 22 15" fill="none" xmlns="http://www.w3.org/2000/svg">
<path d="M14.472 15.0001L13.608 13.7041C14.616 13.0321 15.648 12.1921 16.704 11.1841C17.712 10.1761 18.216 9.26408 18.216 8.44808C17.016 8.44808 16.008 8.13608 15.192 7.51208C14.328 6.88808 13.896 5.92808 13.896 4.63208C13.896 3.38408 14.28 2.37608 15.048 1.60808C15.816 0.888077 16.752 0.528077 17.856 0.528077C18.912 0.528077 19.848 0.864078 20.664 1.53608C21.432 2.25608 21.816 3.38408 21.816 4.92008C21.816 6.36008 21.432 7.72808 20.664 9.02408C19.848 10.3681 18.888 11.5441 17.784 12.5521C16.632 13.6081 15.528 14.4241 14.472 15.0001ZM0.863999 15.0001L0 13.7041C1.008 13.0321 2.04 12.1921 3.096 11.1841C4.104 10.1761 4.608 9.26408 4.608 8.44808C3.408 8.44808 2.4 8.13608 1.584 7.51208C0.719999 6.88808 0.287999 5.92807 0.287999 4.63207C0.287999 3.38408 0.672 2.37608 1.44 1.60807C2.208 0.888076 3.144 0.528076 4.248 0.528076C5.304 0.528076 6.24 0.864076 7.056 1.53608C7.824 2.25608 8.208 3.38408 8.208 4.92008C8.208 6.36008 7.824 7.72808 7.056 9.02408C6.24 10.3681 5.28 11.5441 4.176 12.5521C3.024 13.6081 1.92 14.4241 0.863999 15.0001Z" fill="white"/>
</svg>
