<svg width="686" height="330" viewBox="0 0 686 330" fill="none" xmlns="http://www.w3.org/2000/svg" preserveAspectRatio="none">
<g clip-path="url(#clip0_204_431)">
<path d="M109.424 25.1428H154V6H109.424V25.1428ZM113.476 320.429H149.948V53.8571H113.476V320.429Z" fill="white"/>
<path d="M162.055 8.07492V44.5699H214.77V150H230.99V44.5699H283.705V8.07492H162.055Z" fill="white"/>
<path d="M5.04 147.806V168.065H13.12V178.194H25.24V188.323H45.44V198.452H69.68V208.581H81.8V228.839H73.72V238.968H25.24V228.839H17.16V198.452H1V249.097H5.04V279.484H13.12V299.742H25.24V309.871H37.36V320H61.6V309.871H73.72V299.742H85.84V279.484H93.92V259.226H97.96V178.194H93.92V157.935H85.84V147.806H73.72V137.677H53.52V127.548H29.28V117.419H17.16V97.1613H25.24V87.0323H77.76V97.1613H85.84V127.548H102V76.9032H97.96V46.5161H89.88V26.2581H77.76V16.129H65.64V6H37.36V16.129H25.24V26.2581H13.12V46.5161H5.04V66.7742H1V147.806H5.04Z" fill="white"/>
<path d="M364.1 7.40493V92.56H360.045V100.67H351.935V104.725H339.77V100.67H331.66V92.56H327.605V7.40493H291.11V104.725H295.165V112.835H299.22V120.945H307.33V125H315.44V129.055H347.88V125H355.99V120.945H360.045V116.89H364.1V108.78H368.155V125H400.595V7.40493H364.1Z" fill="white"/>
<path d="M410.165 105.78V113.89H414.22V117.945H418.275V122H426.385V126.055H454.77V122H462.88V117.945H466.935V109.835H470.99V101.725H475.045V122H507.485V36.845H503.43V24.6799H499.375V16.5699H495.32V12.5149H491.265V8.45994H483.155V4.40493H470.99V0.349931H438.55V4.40493H426.385V8.45994H418.275V12.5149H414.22V16.5699H410.165V24.6799H406.11V44.955H438.55V28.7349H442.605V20.6249H446.66V16.5699H462.88V20.6249H466.935V28.7349H470.99V69.285H466.935V61.175H462.88V57.12H454.77V53.065H426.385V57.12H418.275V61.175H414.22V65.23H410.165V73.34H406.11V105.78H410.165ZM422.33 81.45H426.385V77.395H462.88V81.45H470.99V89.56H462.88V93.615H426.385V89.56H422.33V81.45Z" fill="white"/>
<path d="M187.311 185.794L230.396 197.338L232.495 189.505L189.41 177.96L187.311 185.794ZM157.643 312.182L192.894 321.628L223.33 208.039L188.079 198.594L157.643 312.182Z" fill="white"/>
<path d="M536.379 136V284.886H532.31V268.343H528.241V251.8H524.172V235.257H520.103V218.714H516.034V202.171H511.966V185.629H507.897V169.086H503.828V152.543H499.759V136H455V329H491.621V185.629H495.69V202.171H499.759V218.714H503.828V235.257H507.897V251.8H511.966V268.343H516.034V284.886H520.103V301.429H524.172V317.971H528.241V329H573V136H536.379Z" fill="white"/>
<path d="M585.04 228.645V240.452H593.12V246.355H605.24V252.258H625.44V258.161H649.68V264.065H661.8V275.871H653.72V281.774H605.24V275.871H597.16V258.161H581V287.677H585.04V305.387H593.12V317.194H605.24V323.097H617.36V329H641.6V323.097H653.72V317.194H665.84V305.387H673.92V293.581H677.96V246.355H673.92V234.548H665.84V228.645H653.72V222.742H633.52V216.839H609.28V210.935H597.16V199.129H605.24V193.226H657.76V199.129H665.84V216.839H682V187.323H677.96V169.613H669.88V157.806H657.76V151.903H645.64V146H617.36V151.903H605.24V157.806H593.12V169.613H585.04V181.419H581V228.645H585.04Z" fill="white"/>
<path d="M511 6V39.4286H586.833V136H610.167V39.4286H686V6H511Z" fill="white"/>
<path d="M247.419 213.607L247.419 225.714H253.839L253.839 237.821H266.677V245.893H279.516V249.929H292.355V253.964H311.613V258H369.387V253.964L388.645 253.964L388.645 249.929H401.484V245.893H414.323V237.821H427.161V225.714H433.581V213.607H440V189.393H433.581V177.286H427.161V165.179L414.323 165.179V157.107H401.484V153.071L388.645 153.071V149.036L369.387 149.036V145L311.613 145V149.036L292.355 149.036V153.071H279.516L279.516 157.107H266.677L266.677 165.179H253.839L253.839 177.286H247.419L247.419 189.393H241L241 213.607H247.419ZM305.194 181.321H311.613V169.214H318.032V165.179H330.871L330.871 161.143H350.129V165.179L362.968 165.179V169.214L369.387 169.214V181.321H375.806L375.806 221.679H369.387V233.786H362.968V237.821H350.129V241.857H330.871V237.821H318.032V233.786H311.613V221.679H305.194V181.321Z" fill="white"/>
</g>
<defs>
<clipPath id="clip0_204_431">
<rect width="686" height="330" fill="white"/>
</clipPath>
</defs>
</svg>
