<svg width="682" height="329" viewBox="0 0 682 329" fill="none" xmlns="http://www.w3.org/2000/svg" preserveAspectRatio="none">
<path d="M105 25.1428H149.576V6H105V25.1428ZM109.052 320.429H145.524V53.8571H109.052V320.429Z" fill="white"/>
<path d="M165 6V42.6073H214.4V169H229.6V42.6073H279V6H165Z" fill="white"/>
<path d="M3.8 147.806V168.065H11.4V178.194H22.8V188.323H41.8V198.452H64.6V208.581H76V228.839H68.4V238.968H22.8V228.839H15.2V198.452H0V249.097H3.8V279.484H11.4V299.742H22.8V309.871H34.2V320H57V309.871H68.4V299.742H79.8V279.484H87.4V259.226H91.2V178.194H87.4V157.935H79.8V147.806H68.4V137.677H49.4V127.548H26.6V117.419H15.2V97.1613H22.8V87.0323H72.2V97.1613H79.8V127.548H95V76.9032H91.2V46.5161H83.6V26.2581H72.2V16.129H60.8V6H34.2V16.129H22.8V26.2581H11.4V46.5161H3.8V66.7742H0V147.806H3.8Z" fill="white"/>
<path d="M361.333 4V89.4H357.593V97.5334H350.111V101.6H338.889V97.5334H331.407V89.4H327.667V4H294V101.6H297.741V109.733H301.481V117.867H308.963V121.933H316.444V126H346.37V121.933H353.852V117.867H357.593V113.8H361.333V105.667H365.074V121.933H395V4H361.333Z" fill="white"/>
<path d="M413.72 105.677V113.806H417.44V117.871H421.16V121.935H428.6V126H454.64V121.935H462.08V117.871H465.8V109.742H469.52V101.613H473.24V121.935H503V36.5807H499.28V24.387H495.56V16.258H491.84V12.1935H488.12V8.12904H480.68V4.06451H469.52V0H439.76V4.06451H428.6V8.12904H421.16V12.1935H417.44V16.258H413.72V24.387H410V44.7097H439.76V28.4516H443.48V20.3225H447.2V16.258H462.08V20.3225H465.8V28.4516H469.52V69.0968H465.8V60.9678H462.08V56.9033H454.64V52.8387H428.6V56.9033H421.16V60.9678H417.44V65.0323H413.72V73.1613H410V105.677H413.72ZM424.88 81.2903H428.6V77.2258H462.08V81.2903H469.52V89.4194H462.08V93.4839H428.6V89.4194H424.88V81.2903Z" fill="white"/>
<path d="M183.668 183.834L226.753 195.378L228.852 187.545L185.767 176L183.668 183.834ZM154 310.222L189.251 319.668L219.687 206.079L184.436 196.634L154 310.222Z" fill="white"/>
<path d="M536.379 138V285.343H532.31V268.972H528.241V252.6H524.172V236.228H520.103V219.857H516.034V203.485H511.966V187.115H507.897V170.743H503.828V154.372H499.759V138H455V329H491.621V187.115H495.69V203.485H499.759V219.857H503.828V236.228H507.897V252.6H511.966V268.972H516.034V285.343H520.103V301.715H524.172V318.085H528.241V329H573V138H536.379Z" fill="white"/>
<path d="M590.8 221.516V234.162H598.4V240.484H609.8V246.806H628.8V253.129H651.6V259.452H663V272.097H655.4V278.419H609.8V272.097H602.2V253.129H587V284.741H590.8V303.71H598.4V316.355H609.8V322.678H621.2V329H644V322.678H655.4V316.355H666.8V303.71H674.4V291.065H678.2V240.484H674.4V227.838H666.8V221.516H655.4V215.194H636.4V208.871H613.6V202.548H602.2V189.903H609.8V183.581H659.2V189.903H666.8V208.871H682V177.259H678.2V158.29H670.6V145.645H659.2V139.322H647.8V133H621.2V139.322H609.8V145.645H598.4V158.29H590.8V170.935H587V221.516H590.8Z" fill="white"/>
<path d="M517 0V32.4H588.5V126H610.5V32.4H682V0H517Z" fill="white"/>
<path d="M247.419 207.821V220.143H253.839V232.464H266.677V240.679H279.516V244.786H292.355V248.893H311.613V253H369.387V248.893H388.645V244.786H401.484V240.679H414.323V232.464H427.161V220.143H433.581V207.821H440V183.179H433.581V170.857H427.161V158.536H414.323V150.321H401.484V146.214H388.645V142.107H369.387V138H311.613V142.107H292.355V146.214H279.516V150.321H266.677V158.536H253.839V170.857H247.419V183.179H241V207.821H247.419ZM305.194 174.964H311.613V162.643H318.032V158.536H330.871V154.429H350.129V158.536H362.968V162.643H369.387V174.964H375.806V216.036H369.387V228.357H362.968V232.464H350.129V236.571H330.871V232.464H318.032V228.357H311.613V216.036H305.194V174.964Z" fill="white"/>
</svg>
