<svg width="956" height="610" viewBox="0 0 956 610" fill="none" xmlns="http://www.w3.org/2000/svg">
<ellipse cx="97.2296" cy="346.721" rx="48.8843" ry="260.912" transform="rotate(-18.4126 97.2296 346.721)" fill="black"/>
<ellipse cx="239.361" cy="468.315" rx="19.6893" ry="143.114" transform="rotate(-18.4126 239.361 468.315)" fill="black"/>
<ellipse cx="341.454" cy="394.537" rx="33.5608" ry="197.305" transform="rotate(23.0058 341.454 394.537)" fill="black"/>
<ellipse cx="608.979" cy="259.454" rx="99.3238" ry="49.0922" transform="rotate(159.301 608.979 259.454)" fill="black"/>
<ellipse cx="528.969" cy="379.228" rx="25.06" ry="93.7874" transform="rotate(153.669 528.969 379.228)" fill="black"/>
<ellipse rx="33.1812" ry="162.564" transform="matrix(0.432383 -0.90169 0.794273 0.607561 680.206 429.644)" fill="black"/>
<ellipse rx="33.1812" ry="162.564" transform="matrix(0.75757 -0.652754 0.484125 0.874999 872.969 342.325)" fill="black"/>
<ellipse cx="773.356" cy="222.789" rx="38.0277" ry="221.828" fill="black"/>
<ellipse cx="884.302" cy="158.726" rx="71.4132" ry="17.3699" transform="rotate(-29.2196 884.302 158.726)" fill="black"/>
<ellipse cx="458.61" cy="484.92" rx="60.8448" ry="110.068" transform="rotate(-13.9895 458.61 484.92)" fill="black"/>
</svg>
