<svg width="674" height="285" viewBox="0 0 674 285" fill="none" xmlns="http://www.w3.org/2000/svg">
<path d="M42.9655 213.078C59.965 213.078 68.6537 202.122 68.6537 187.39C68.6537 178.134 65.6315 173.979 61.665 165.479C77.3423 165.479 85.0865 155.468 85.0865 142.246C85.0865 126.758 71.4869 120.714 64.3093 118.069C73.7535 115.803 84.8976 113.158 85.0865 98.0478C85.2754 82.3705 67.1426 78.2151 50.1431 78.2151C7.83325 78.2151 0.0890353 104.659 0.0890353 136.391C0.0890353 160.379 9.72208 213.078 42.9655 213.078ZM72.2424 95.9701C69.4092 95.9701 66.5759 86.7148 53.543 83.5038C64.6871 84.6371 73.3757 89.5481 73.3757 93.7035C73.3757 95.0257 72.998 95.9701 72.2424 95.9701ZM63.9316 128.458C71.8647 129.402 78.0978 133.18 78.0978 136.769C78.0978 137.902 77.7201 138.658 77.1534 138.658C75.0757 138.658 73.1869 131.102 63.9316 128.458ZM126.442 165.29C130.786 179.834 134.564 200.8 152.696 200.8C162.518 200.8 171.018 195.323 171.018 181.912C171.018 166.612 160.063 152.068 146.841 150.368V149.424C155.152 145.646 164.218 139.602 164.218 125.436C164.218 103.714 149.863 91.8147 118.509 91.8147C86.2095 91.8147 81.6763 118.825 81.6763 142.058C81.6763 160.946 86.2095 202.122 113.598 202.122C123.608 202.122 126.442 187.201 126.442 178.134C126.442 173.979 125.875 169.446 125.497 165.29H126.442ZM145.141 108.436C140.419 108.436 137.019 99.37 116.997 96.159C133.997 97.2923 146.841 102.203 146.841 106.359C146.841 107.681 146.085 108.436 145.141 108.436ZM131.73 146.402C127.953 146.402 125.119 143.191 125.119 140.169C125.119 137.902 127.386 136.769 129.275 136.769C132.675 136.769 136.264 140.358 136.264 143.191C136.264 144.702 134.941 146.402 131.73 146.402ZM130.975 152.635C124.175 151.691 118.886 147.535 118.886 144.135C118.886 143.002 119.075 142.246 119.642 142.246C121.342 142.246 122.853 149.991 130.975 152.635ZM142.874 154.902C150.996 155.846 156.852 159.813 156.852 163.59C156.852 164.535 156.663 165.29 156.096 165.29C154.019 165.29 152.507 157.357 142.874 154.902ZM220.995 163.968C234.784 160.002 240.261 152.257 240.45 143.38C240.639 128.08 229.306 119.958 210.229 120.903V120.147C218.54 118.636 229.306 118.069 229.306 105.603C229.306 94.459 212.307 91.248 195.874 91.248C175.097 91.248 162.253 96.3479 162.064 120.525C161.686 146.213 168.108 203.634 201.918 203.634C210.04 203.634 242.15 197.589 242.15 180.968C242.528 165.668 229.306 163.968 220.995 166.046V163.968ZM218.729 103.525C216.651 103.525 214.762 98.2367 206.262 96.3479C213.629 96.9145 219.484 99.7478 219.484 102.203C219.484 102.959 219.107 103.525 218.729 103.525ZM225.717 135.824C223.262 135.824 220.806 127.891 210.04 125.247C219.295 126.191 226.662 130.347 226.662 133.936C226.662 135.069 226.284 135.824 225.717 135.824ZM220.806 170.39C228.362 170.957 234.028 173.601 234.028 176.245C234.028 177.001 233.651 177.568 233.273 177.568C231.384 177.568 229.306 172.279 220.806 170.39ZM292.564 163.968C306.353 160.002 311.831 152.257 312.019 143.38C312.208 128.08 300.875 119.958 281.798 120.903V120.147C290.109 118.636 300.875 118.069 300.875 105.603C300.875 94.459 283.876 91.248 267.443 91.248C246.666 91.248 233.822 96.3479 233.633 120.525C233.255 146.213 239.677 203.634 273.487 203.634C281.609 203.634 313.719 197.589 313.719 180.968C314.097 165.668 300.875 163.968 292.564 166.046V163.968ZM290.298 103.525C288.22 103.525 286.331 98.2367 277.832 96.3479C285.198 96.9145 291.053 99.7478 291.053 102.203C291.053 102.959 290.676 103.525 290.298 103.525ZM297.287 135.824C294.831 135.824 292.376 127.891 281.609 125.247C290.864 126.191 298.231 130.347 298.231 133.936C298.231 135.069 297.853 135.824 297.287 135.824ZM292.376 170.39C299.931 170.957 305.597 173.601 305.597 176.245C305.597 177.001 305.22 177.568 304.842 177.568C302.953 177.568 300.875 172.279 292.376 170.39Z" fill="black"/>
<path d="M379.376 178.434C380.887 193.167 391.087 204.689 406.387 204.689C418.475 204.689 420.742 183.156 420.175 163.513C418.853 119.503 409.598 93.0591 395.809 93.0591C384.854 93.0591 382.587 113.647 382.021 119.314H381.265C379.943 114.403 377.676 101.559 370.31 101.559C364.077 101.559 360.866 107.981 360.299 114.592H359.732C356.521 104.392 348.211 92.4925 338.955 92.4925C325.922 92.4925 323.467 114.214 324.033 131.78C324.978 163.89 340.655 205.067 363.132 205.067C373.332 205.067 376.921 187.879 378.054 178.434H379.376ZM350.666 110.814C348.777 110.814 346.888 100.237 337.822 96.8368C345.566 98.159 351.233 103.637 351.422 108.548C351.422 109.87 351.233 110.814 350.666 110.814ZM405.064 109.492C403.553 109.492 402.042 100.992 394.298 97.9701C400.72 99.1034 405.631 103.637 405.82 107.603C405.82 108.736 405.442 109.492 405.064 109.492ZM375.787 112.892C374.654 112.892 373.332 106.848 368.043 104.959C372.576 105.714 375.976 108.736 376.165 111.57C376.165 112.325 375.787 112.892 375.787 112.892ZM464.111 204.689C495.843 204.689 501.888 166.724 501.888 151.424C501.888 124.603 484.51 93.0591 450.134 93.0591C428.223 93.0591 415.19 118.369 415.19 138.58C415.19 172.957 429.923 204.689 464.111 204.689ZM477.144 116.292C472.233 116.292 468.644 103.448 447.867 99.1034C465.433 100.614 478.844 107.414 478.844 113.27C478.844 115.158 478.277 116.292 477.144 116.292ZM459.011 155.013C455.045 155.013 452.4 151.802 452.4 148.969C452.4 146.513 454.667 145.38 456.556 145.38C459.956 145.38 463.356 149.157 463.356 151.802C463.356 153.502 462.222 155.013 459.011 155.013ZM458.067 161.246C451.456 160.302 446.167 156.335 446.167 152.746C446.167 151.613 446.167 150.857 446.923 150.857C448.434 150.857 450.134 158.791 458.067 161.246ZM540.01 167.29C544.354 181.834 548.132 202.8 566.264 202.8C576.086 202.8 584.586 197.323 584.586 183.912C584.586 168.612 573.631 154.068 560.409 152.368V151.424C568.72 147.646 577.786 141.602 577.786 127.436C577.786 105.714 563.431 93.8147 532.077 93.8147C499.778 93.8147 495.244 120.825 495.244 144.058C495.244 162.946 499.778 204.122 527.166 204.122C537.176 204.122 540.01 189.201 540.01 180.134C540.01 175.979 539.443 171.446 539.065 167.29H540.01ZM558.709 110.436C553.987 110.436 550.587 101.37 530.565 98.159C547.565 99.2923 560.409 104.203 560.409 108.359C560.409 109.681 559.654 110.436 558.709 110.436ZM545.298 148.402C541.521 148.402 538.687 145.191 538.687 142.169C538.687 139.902 540.954 138.769 542.843 138.769C546.243 138.769 549.832 142.358 549.832 145.191C549.832 146.702 548.509 148.402 545.298 148.402ZM544.543 154.635C537.743 153.691 532.454 149.535 532.454 146.135C532.454 145.002 532.643 144.246 533.21 144.246C534.91 144.246 536.421 151.991 544.543 154.635ZM556.442 156.902C564.564 157.846 570.42 161.813 570.42 165.59C570.42 166.535 570.231 167.29 569.664 167.29C567.587 167.29 566.076 159.357 556.442 156.902ZM628.708 178.434C628.708 181.456 633.43 209.411 654.018 209.411C667.807 209.411 673.662 200.723 673.662 182.779C673.662 157.091 659.496 147.646 643.441 143.68C655.152 138.769 669.507 125.547 669.507 110.059C669.507 95.1368 659.496 88.9037 645.896 88.9037C634.563 88.9037 620.208 100.426 616.997 112.325H616.431C613.975 99.67 605.098 89.8481 597.165 89.8481C585.076 89.8481 576.387 104.959 576.387 128.003C576.387 153.691 587.909 208.278 608.686 208.278C627.575 208.278 627.764 187.312 627.764 178.623L628.708 178.434ZM659.496 105.903C657.229 105.903 655.152 97.0257 645.708 94.0035C653.83 95.1368 660.063 99.67 660.063 103.825C660.063 104.959 659.874 105.903 659.496 105.903ZM608.309 107.792C606.042 107.414 605.098 98.3479 596.031 94.0035C604.153 96.2701 609.631 101.559 609.253 105.714C609.064 106.848 608.498 107.792 608.309 107.792ZM643.819 150.48C652.696 151.613 659.496 155.957 659.496 159.735C659.496 160.679 659.118 161.624 658.74 161.624C656.474 161.624 654.018 153.313 643.819 150.48Z" fill="black"/>
</svg>
